<svg version="1.1" id="Layer_1" xmlns="http://www.w3.org/2000/svg" xmlns:xlink="http://www.w3.org/1999/xlink" x="0px" y="0px"
	 width="100%" viewBox="0 0 496 496" enable-background="new 0 0 496 496" xml:space="preserve">
<path fill="#000000" opacity="1.000000" stroke="none" 
	d="
M191.876831,227.416229 
	C188.260712,228.798050 184.888809,228.153076 181.587143,228.370346 
	C177.980545,228.607697 175.579773,228.037598 175.583115,223.405167 
	C175.586243,219.061081 177.000061,217.520554 181.373169,217.604599 
	C188.024155,217.732452 191.146805,215.418900 192.892670,210.198364 
	C194.490997,205.418976 193.368484,201.227661 189.833099,197.882263 
	C185.898743,194.159317 180.909729,194.736404 176.104218,195.464005 
	C174.223846,195.748703 174.320572,197.632065 174.319382,199.131241 
	C174.310516,210.286880 174.329132,221.442505 174.321030,232.598145 
	C174.319901,234.150635 174.751160,235.427734 175.750885,236.704132 
	C182.034409,244.726364 182.040680,248.331223 175.796051,256.954681 
	C178.694168,260.340332 182.168640,263.493805 182.376160,268.598419 
	C182.766632,278.202942 175.108444,286.485596 164.792740,287.240936 
	C162.638702,287.398621 160.465622,287.311798 158.301315,287.311096 
	C151.044510,287.308716 150.911713,287.324097 149.858398,280.317108 
	C149.322220,276.750275 146.835876,277.406250 144.612457,277.342285 
	C138.067978,277.153961 138.032593,277.178253 138.009964,270.554565 
	C137.975281,260.397919 137.966934,250.240967 137.999359,240.084320 
	C138.021057,233.288635 138.369675,232.953659 144.954956,232.893066 
	C148.784225,232.857819 152.620987,232.740875 156.441711,232.924484 
	C160.299805,233.109894 161.741898,231.583603 161.689743,227.665939 
	C161.521332,215.013855 161.778870,202.355392 161.549042,189.705261 
	C161.470581,185.387283 162.845123,183.612930 167.227097,183.872162 
	C173.862289,184.264709 180.537369,183.357330 187.164932,184.414215 
	C198.777969,186.266129 205.544098,193.168686 207.086792,204.784164 
	C208.265396,213.658279 201.928329,223.298462 191.876831,227.416229 
M151.201645,259.503235 
	C151.202286,263.990692 151.196259,268.478210 151.206924,272.965637 
	C151.211090,274.722931 151.427612,276.497955 153.687225,276.551971 
	C157.156448,276.634918 160.655075,277.098633 164.084854,276.067535 
	C167.148254,275.146606 168.900955,273.254761 168.859634,269.932495 
	C168.818344,266.613190 166.975754,264.576385 163.947052,263.879578 
	C161.719727,263.367126 159.338791,263.296814 157.038895,263.379517 
	C153.810760,263.495575 152.816513,262.113953 152.610107,258.964325 
	C152.302002,254.263168 153.828827,252.081940 158.744019,252.642426 
	C160.359726,252.826675 162.135712,252.761261 163.668732,252.275024 
	C166.894287,251.251968 167.908401,246.735321 165.179764,245.172501 
	C161.403198,243.009445 156.951309,243.416626 153.051117,244.490524 
	C149.770401,245.393890 151.431915,249.063950 151.198029,251.531387 
	C150.979630,253.835373 151.191315,256.180145 151.201645,259.503235 
z"/>
<path fill="#000000" opacity="1.000000" stroke="none" 
	d="
M287.881897,221.861938 
	C287.867523,217.388870 287.799286,213.394623 287.853943,209.402054 
	C287.904846,205.686661 285.839691,204.526428 282.487915,204.442780 
	C278.731140,204.349030 279.281738,206.943130 279.270996,209.230621 
	C279.247528,214.222519 279.198639,219.215088 279.252838,224.206360 
	C279.314423,229.878189 275.071594,228.069580 272.103455,228.334427 
	C269.067474,228.605331 266.427795,228.389160 266.627228,224.084335 
	C266.850311,219.269470 266.619934,214.435181 266.672516,209.610275 
	C266.709015,206.258957 264.873993,204.836517 261.804474,204.490295 
	C259.259399,204.203217 257.662415,204.705658 257.784393,207.868958 
	C257.988953,213.176407 257.729126,218.501740 257.932373,223.809280 
	C258.103119,228.269058 255.423889,228.535568 252.114594,228.354370 
	C248.940292,228.180588 245.056717,229.379990 245.094162,223.974518 
	C245.152954,215.489273 245.087173,207.003220 245.107986,198.517593 
	C245.115692,195.373886 246.361664,193.605957 249.906708,193.718185 
	C255.558487,193.897095 261.220459,193.728912 266.877716,193.768158 
	C270.684235,193.794571 273.926727,195.399628 276.861847,197.704254 
	C279.806274,192.723846 290.270782,192.225342 295.596832,196.770584 
	C298.652283,199.378098 300.387482,202.648788 300.338715,206.789948 
	C300.277954,211.947647 300.225800,217.109177 300.359619,222.264145 
	C300.455078,225.941238 300.302216,228.681381 295.231262,228.461929 
	C288.216034,228.158340 288.171356,228.453995 287.881897,221.861938 
z"/>
<path fill="#000000" opacity="1.000000" stroke="none" 
	d="
M282.915680,287.324371 
	C280.939514,287.322601 279.442261,287.333405 277.945312,287.316589 
	C272.298889,287.253143 270.430939,284.516296 272.090027,279.019806 
	C272.996918,276.015228 275.399658,276.734650 277.420929,276.677460 
	C285.834442,276.439240 285.837189,276.476257 285.844543,268.012054 
	C285.848419,263.549042 285.845215,259.086029 285.845215,254.839066 
	C283.696320,253.301361 281.607483,253.537048 279.702545,253.584412 
	C276.544220,253.662918 273.486786,254.572433 273.401276,258.475037 
	C273.311310,262.583893 276.105499,263.889587 279.726044,263.703705 
	C283.169067,263.526978 284.288483,265.021240 284.419891,268.420776 
	C284.593506,272.912262 283.111053,274.545410 278.453156,274.464172 
	C267.778442,274.277954 260.722168,269.541321 259.697357,261.187958 
	C258.580231,252.082214 265.184296,243.748566 274.783264,242.969467 
	C281.394287,242.432892 288.080170,242.838211 294.732239,242.778229 
	C297.234833,242.755676 298.340057,243.897125 298.327545,246.404816 
	C298.277740,256.384705 298.586090,266.376770 298.185730,276.341156 
	C297.879700,283.958618 292.988129,287.266357 282.915680,287.324371 
z"/>
<path fill="#000000" opacity="1.000000" stroke="none" 
	d="
M236.327454,242.808136 
	C244.309891,242.761963 244.463043,243.054810 244.381927,249.515106 
	C244.342819,252.629181 242.972870,253.259308 240.246719,253.685822 
	C235.322113,254.456284 232.771255,257.601196 233.420486,261.260193 
	C234.043701,264.772522 237.812820,266.884705 242.346771,266.730774 
	C245.447159,266.625549 245.792831,264.893555 245.782135,262.480347 
	C245.746033,254.333435 245.986038,246.178558 245.696259,238.041840 
	C245.499832,232.526230 248.974792,232.968506 252.576355,232.872711 
	C256.237823,232.775314 258.521637,233.412735 258.411407,238.021835 
	C258.137177,249.488068 258.235840,260.966339 258.373840,272.437500 
	C258.416992,276.026306 257.244781,277.575928 253.490692,277.394623 
	C248.680115,277.162323 243.849503,277.360565 239.027634,277.343689 
	C228.608887,277.307220 220.552246,270.478149 219.750443,261.025696 
	C218.994629,252.115463 225.535553,244.738480 236.327454,242.808136 
z"/>
<path fill="#000000" opacity="1.000000" stroke="none" 
	d="
M340.834290,221.306610 
	C340.782593,228.329803 340.780212,228.449905 334.183960,228.318466 
	C328.044373,228.196152 321.839996,229.121140 315.773407,227.689682 
	C307.167603,225.659088 301.668396,219.150192 301.649628,211.289429 
	C301.631714,203.794556 307.567688,196.735458 315.756592,194.689331 
	C322.978210,192.884888 330.342896,194.004974 337.643341,193.826187 
	C339.700867,193.775803 340.473694,195.126129 340.824432,196.969025 
	C342.263916,204.532516 337.752197,209.903793 333.292664,214.631195 
	C330.017853,218.102692 324.902588,215.916611 320.166443,215.870163 
	C320.639465,211.472336 324.552185,209.459412 325.266052,205.653152 
	C322.464935,203.579681 319.912628,204.809067 317.556763,206.348068 
	C315.123016,207.937927 314.815308,210.513657 315.576385,213.038300 
	C316.432953,215.879684 318.763672,217.385086 321.602631,217.523666 
	C326.421906,217.758942 331.257660,217.674850 336.086578,217.685654 
	C338.397095,217.690842 340.505676,217.905960 340.834290,221.306610 
z"/>
<path fill="#000000" opacity="1.000000" stroke="none" 
	d="
M313.410645,258.514801 
	C313.710938,264.303314 315.747925,266.478302 320.920776,266.638885 
	C325.415100,266.778442 329.920593,266.841370 334.412781,266.690338 
	C339.402039,266.522583 338.143585,270.176300 338.518097,272.921112 
	C338.966431,276.206512 337.521729,277.433960 334.295502,277.358551 
	C328.634308,277.226105 322.962616,277.468353 317.304962,277.274017 
	C308.285889,276.964233 300.664795,270.419312 299.689331,262.412811 
	C298.711639,254.388062 304.494202,246.326797 313.254425,243.853119 
	C320.604492,241.777649 328.158569,242.991241 335.626465,242.872742 
	C337.118256,242.849060 338.053833,243.639175 338.486053,245.143494 
	C340.735779,252.974075 336.074219,258.450958 331.420685,263.282166 
	C327.961945,266.872894 322.892700,265.119629 318.109100,264.521423 
	C319.145294,260.059143 322.808533,257.827271 324.089752,253.811630 
	C319.539124,253.243393 315.692749,253.568192 313.410645,258.514801 
z"/>
<path fill="#000000" opacity="1.000000" stroke="none" 
	d="
M196.257004,258.758057 
	C196.419205,261.182068 195.818161,263.293732 197.127625,265.034088 
	C198.817673,267.280334 201.315063,266.767120 203.585373,266.551422 
	C206.170258,266.305847 205.952759,264.138123 205.973877,262.341522 
	C206.034500,257.180908 205.983978,252.019089 206.032928,246.858246 
	C206.085281,241.339157 210.278625,243.022888 213.307312,242.766754 
	C216.316849,242.512253 218.453751,243.076187 218.379379,246.956253 
	C218.213516,255.610565 218.269623,264.271576 218.391113,272.927643 
	C218.435486,276.089172 217.301102,277.456696 214.033798,277.366669 
	C208.377075,277.210785 202.708374,277.462891 197.053268,277.279846 
	C189.568573,277.037567 183.907089,271.291626 183.723801,263.812378 
	C183.585159,258.154999 183.816238,252.488495 183.674118,246.831284 
	C183.562393,242.384155 186.561554,242.647781 189.427155,242.794662 
	C192.329773,242.943481 196.266052,241.554855 196.237289,246.805206 
	C196.216324,250.634506 196.247177,254.464066 196.257004,258.758057 
z"/>
<path fill="#000000" opacity="1.000000" stroke="none" 
	d="
M352.436829,259.798340 
	C352.181885,265.111389 354.402771,267.316711 359.356964,266.711548 
	C363.653503,266.186707 364.186188,268.835175 364.219208,272.278961 
	C364.252258,275.725586 363.319153,277.690613 359.431732,277.377411 
	C356.785858,277.164215 354.101715,277.449921 351.450745,277.272339 
	C345.404724,276.867340 340.756042,272.287048 340.656708,266.299194 
	C340.496643,256.652191 340.750763,246.998138 340.573212,237.351791 
	C340.495972,233.155029 342.960999,232.796478 346.045471,232.888077 
	C349.101501,232.978836 353.188110,232.110352 352.709259,237.082977 
	C352.238220,241.974792 354.229919,243.362686 358.610992,242.790710 
	C363.188477,242.193085 364.158844,244.643448 364.254150,248.712234 
	C364.355713,253.048874 362.235962,253.870972 358.720367,253.408188 
	C354.118561,252.802414 351.651489,254.360306 352.436829,259.798340 
z"/>
<path fill="#000000" opacity="1.000000" stroke="none" 
	d="
M210.108871,200.473572 
	C214.118530,194.567764 222.514481,191.720459 228.380356,193.923660 
	C231.032272,194.919724 230.305008,197.181656 230.246811,199.016647 
	C230.185120,200.961792 231.283981,203.951797 228.040268,204.239960 
	C221.328690,204.836227 220.687378,209.195663 220.889969,214.505325 
	C221.016617,217.824402 220.847702,221.167358 220.609100,224.485046 
	C220.159348,230.738876 215.289536,227.794434 212.201935,228.287369 
	C208.459198,228.884903 208.301575,226.321899 208.536316,223.548935 
	C209.176636,215.984970 206.785828,208.235916 210.108871,200.473572 
z"/>
<path fill="#000000" opacity="1.000000" stroke="none" 
	d="
M244.057953,222.811264 
	C244.617172,229.816238 239.809036,227.997498 236.292175,228.366638 
	C231.863052,228.831573 231.551910,226.194687 231.564621,222.811111 
	C231.592758,215.325104 231.449081,207.836929 231.262314,200.352463 
	C231.199280,197.826004 232.178604,196.859558 234.713806,196.644135 
	C243.414581,195.904831 244.045532,196.434402 244.017899,205.354263 
	C244.000366,211.013931 244.043396,216.673798 244.057953,222.811264 
z"/>
<path fill="#000000" opacity="1.000000" stroke="none" 
	d="
M239.722137,195.140106 
	C230.979126,195.105591 231.056000,194.995956 231.458435,188.387207 
	C231.672211,184.876648 233.172440,183.543015 236.384064,183.923508 
	C239.052383,184.239639 243.050812,182.339417 243.587814,186.881332 
	C243.948776,189.934326 245.695602,194.238937 239.722137,195.140106 
z"/>
</svg>