<svg version="1.1" id="Layer_1" xmlns="http://www.w3.org/2000/svg" xmlns:xlink="http://www.w3.org/1999/xlink" x="0px" y="0px"
	 width="100%" viewBox="0 0 500 500" enable-background="new 0 0 500 500" xml:space="preserve">
<path fill="#F8F4EE" opacity="1.000000" stroke="none" 
	d="
M457.000000,501.000000 
	C304.666718,501.000000 152.833405,501.000000 1.000082,501.000000 
	C1.000054,334.333405 1.000054,167.666824 1.000027,1.000171 
	C167.666550,1.000114 334.333099,1.000114 500.999756,1.000057 
	C500.999817,167.666519 500.999817,334.333038 500.999908,500.999756 
	C486.500000,501.000000 472.000000,501.000000 457.000000,501.000000 
M251.330582,265.801422 
	C251.330582,265.801422 251.235992,265.768677 251.494659,266.689545 
	C251.494659,269.628845 251.494659,272.568176 251.494659,276.258026 
	C258.108337,275.807220 264.194977,276.116821 269.915466,274.816071 
	C276.823120,273.245453 281.674988,268.461273 282.884094,261.179565 
	C283.977997,254.591965 281.045502,249.643997 274.985596,246.352264 
	C279.567322,242.633179 282.128937,238.290405 280.298462,232.320755 
	C278.737762,227.230896 275.341125,223.431519 270.215363,223.133575 
	C260.169189,222.549591 250.065155,222.961929 240.071838,222.961929 
	C240.071838,237.433411 240.071838,251.634552 240.071838,265.879089 
	C244.083099,265.879089 247.738419,265.879089 251.330582,265.801422 
M56.413750,265.098755 
	C60.453167,265.329346 64.556694,266.127380 68.519485,265.679688 
	C78.726021,264.526550 86.552223,255.005386 86.584122,244.404846 
	C86.616241,233.731369 78.944435,224.011505 68.628532,223.125107 
	C59.904480,222.375488 51.064873,222.970642 41.929081,222.970642 
	C41.929081,231.813171 41.929085,240.612823 41.929085,249.412476 
	C41.929085,258.162109 41.929081,266.911743 41.929081,275.625244 
	C46.206383,275.625244 49.797161,275.625244 53.842735,275.625244 
	C53.842735,261.133362 53.842735,246.886154 53.842735,232.699768 
	C66.272438,231.309250 72.742432,234.230103 73.683487,242.085464 
	C74.050934,245.152725 73.280991,248.827911 71.792038,251.549377 
	C68.524292,257.522003 61.958115,255.629715 56.336681,256.484131 
	C56.336681,259.246246 56.336681,261.717926 56.413750,265.098755 
M180.011673,261.377106 
	C180.010513,255.879456 180.130585,250.378433 179.977966,244.884995 
	C179.780273,237.769943 174.782806,232.701324 167.702728,232.317932 
	C164.901199,232.166214 162.084610,232.293045 159.103668,232.293045 
	C158.809708,234.394669 158.550369,236.248734 158.257431,238.343063 
	C148.741928,227.790085 136.827835,234.163849 126.113083,232.043060 
	C126.113083,243.824661 126.113083,254.749023 126.113083,265.706604 
	C129.900955,265.706604 133.440063,265.706604 137.264130,265.706604 
	C137.264130,257.785797 137.264130,250.166916 137.264130,242.595093 
	C146.171402,241.352661 147.071625,242.125824 147.072937,250.727203 
	C147.073700,255.682495 147.073074,260.637787 147.073074,265.795898 
	C151.076614,265.795898 154.652710,265.795898 158.775589,265.795898 
	C158.775589,257.860870 158.775589,250.128891 158.775589,242.459717 
	C168.155899,241.661514 168.572830,242.024338 168.578949,250.504257 
	C168.582642,255.605331 168.579636,260.706390 168.579636,266.011536 
	C171.678543,266.011536 174.192413,265.796387 176.653214,266.065857 
	C179.748230,266.404816 180.392288,264.938202 180.011673,261.377106 
M385.425171,242.132217 
	C385.998383,242.575485 387.062653,243.009872 387.070862,243.463348 
	C387.188171,249.945923 387.355988,256.442169 386.984924,262.904877 
	C386.921936,264.002319 384.493866,265.625854 382.991333,265.841461 
	C379.821838,266.296265 376.541687,265.979828 373.530853,265.979828 
	C373.530853,269.726837 373.530853,272.650055 373.530853,275.889740 
	C377.815430,275.889740 381.783966,275.912415 385.752167,275.885132 
	C394.517242,275.824860 398.511444,272.049957 398.800018,263.174622 
	C399.005310,256.860870 398.848328,250.535248 398.851227,244.214920 
	C398.853027,240.312241 398.851562,236.409561 398.851562,232.856674 
	C389.760284,232.856674 381.411957,232.228760 373.206604,233.042618 
	C365.786377,233.778610 360.799072,240.807602 360.865631,248.294922 
	C360.928345,255.349579 365.813812,261.507904 372.973785,262.679596 
	C376.642731,263.279999 380.490936,262.784882 384.279358,262.784882 
	C384.279358,259.505829 384.279358,256.468689 384.279358,253.173798 
	C382.237762,253.173798 380.583008,253.200912 378.929474,253.168137 
	C375.518646,253.100586 373.571960,251.184998 373.456390,247.942474 
	C373.340698,244.697662 375.250732,242.624329 378.527954,242.232941 
	C380.497711,241.997726 382.513550,242.148239 385.425171,242.132217 
M347.065613,224.944839 
	C347.065613,235.217773 347.065613,245.490707 347.065613,255.713501 
	C338.237518,256.619324 334.475433,255.003525 333.765686,250.232849 
	C333.043030,245.375656 336.268463,242.725220 344.204163,241.737503 
	C344.204163,238.687317 344.204163,235.633636 344.204163,232.515701 
	C341.066742,232.515701 338.229889,232.226028 335.471893,232.569580 
	C326.928192,233.633835 321.041351,240.418030 321.029633,248.889938 
	C321.018433,256.988708 327.828491,265.241760 335.790863,265.788666 
	C343.207336,266.298065 350.686310,265.897461 358.372986,265.897461 
	C358.372986,251.442459 358.372986,237.242172 358.372986,221.908463 
	C354.338837,222.669205 350.710876,223.353363 347.065613,224.944839 
M204.291458,242.117233 
	C205.161743,242.207886 206.032043,242.298553 207.431915,242.444382 
	C204.796417,246.203659 202.542740,249.418304 200.233170,252.712692 
	C214.795761,255.244629 222.470596,247.124100 219.676804,232.759033 
	C212.322037,232.759033 204.967087,232.189392 197.738922,232.903290 
	C188.713943,233.794647 181.904892,241.554672 182.040207,249.472443 
	C182.185196,257.954926 188.982513,265.068237 198.492142,265.768219 
	C205.577759,266.289764 212.732574,265.870972 219.975830,265.870972 
	C219.975830,262.580994 219.975830,259.468842 219.975830,256.117950 
	C214.433487,256.117950 209.121338,256.143982 203.809570,256.110931 
	C197.950882,256.074493 194.837921,253.711761 194.674393,249.254044 
	C194.511902,244.824875 197.351776,242.523834 204.291458,242.117233 
M402.586090,242.365097 
	C397.995911,253.726776 404.280823,264.448273 416.884033,265.709320 
	C424.091797,266.430511 431.430786,265.839905 438.703247,265.839905 
	C438.703247,262.477325 438.703247,259.423187 438.703247,256.110931 
	C432.574310,256.110931 426.762421,256.207733 420.955475,256.079468 
	C416.526276,255.981659 413.400482,253.010864 413.291718,249.145401 
	C413.183380,245.293594 416.225616,242.435547 420.844635,242.142776 
	C422.428711,242.042374 424.024506,242.126831 426.326782,242.126831 
	C423.642334,246.034897 421.360504,249.356827 418.979248,252.823502 
	C433.922333,254.633026 440.692932,247.514496 438.536469,232.519257 
	C431.781769,232.519257 424.980560,232.266296 418.207123,232.591675 
	C411.659180,232.906204 406.514801,236.095490 402.586090,242.365097 
M306.692535,256.018555 
	C296.724915,256.324768 296.724457,256.324768 296.721710,246.221985 
	C296.720459,241.635223 296.721497,237.048462 296.721497,232.552429 
	C292.449615,232.552429 289.007812,232.552429 285.244019,232.552429 
	C285.244019,239.942856 284.932159,247.083847 285.340240,254.183456 
	C285.681915,260.127838 290.190887,265.154785 296.114685,265.629974 
	C303.659851,266.235260 311.290375,265.776642 318.789185,265.776642 
	C318.789185,254.491806 318.789185,243.573380 318.789185,232.470001 
	C315.072266,232.470001 311.641022,232.470001 307.563110,232.470001 
	C307.563110,240.277496 307.563110,247.909256 306.692535,256.018555 
M464.582886,258.825745 
	C463.589752,257.924103 462.661591,256.330688 461.593231,256.230377 
	C453.157928,255.438339 453.150452,255.525970 453.179413,246.986710 
	C453.184448,245.503983 453.180115,244.021225 453.180115,242.063324 
	C457.041443,242.063324 460.615662,242.063324 464.169495,242.063324 
	C464.169495,238.539749 464.169495,235.505951 464.169495,232.102661 
	C460.314697,232.102661 456.875244,232.102661 453.075195,232.102661 
	C453.075195,228.784256 453.075195,225.843933 453.075195,222.932602 
	C449.162384,222.932602 445.626129,222.932602 441.905334,222.932602 
	C441.905334,234.075027 441.785919,244.867645 441.956818,255.655670 
	C442.039490,260.875610 446.273376,265.259827 451.814636,265.814545 
	C455.884033,266.221893 460.027008,265.894379 464.584961,265.894379 
	C464.584961,263.626770 464.584961,261.671997 464.582886,258.825745 
M100.008698,258.460083 
	C100.008698,256.629150 100.008629,254.798187 100.008705,252.967239 
	C100.009125,243.148849 100.195290,242.928070 109.501724,241.694351 
	C109.501724,238.647949 109.501724,235.601547 109.501724,232.372406 
	C105.985664,232.372406 102.823074,232.150772 99.702789,232.419769 
	C93.697227,232.937546 89.254822,236.966415 88.927452,242.938522 
	C88.511490,250.527023 88.826782,258.155609 88.826782,265.694122 
	C92.690514,265.694122 96.264015,265.694122 100.008698,265.694122 
	C100.008698,263.399506 100.008698,261.418274 100.008698,258.460083 
M113.644730,265.998383 
	C116.752647,265.998383 119.860573,265.998383 122.947662,265.998383 
	C122.947662,255.490509 122.947662,245.555450 122.947662,235.473511 
	C119.180588,235.473511 115.640060,235.473511 111.882721,235.473511 
	C111.882721,241.292572 111.780380,246.783981 111.914421,252.269592 
	C112.025871,256.831146 112.415176,261.385864 113.644730,265.998383 
M114.558044,232.271027 
	C117.307266,232.271027 120.056488,232.271027 122.807343,232.271027 
	C122.807343,228.747040 122.807343,225.735733 122.807343,222.855530 
	C119.048370,222.855530 115.649384,222.855530 111.062271,222.855530 
	C111.985527,226.315750 112.778633,229.288177 114.558044,232.271027 
z"/>
<path fill="#030303" opacity="1.000000" stroke="none" 
	d="
M251.393738,265.879089 
	C247.738419,265.879089 244.083099,265.879089 240.071838,265.879089 
	C240.071838,251.634552 240.071838,237.433411 240.071838,222.961929 
	C250.065155,222.961929 260.169189,222.549591 270.215363,223.133575 
	C275.341125,223.431519 278.737762,227.230896 280.298462,232.320755 
	C282.128937,238.290405 279.567322,242.633179 274.985596,246.352264 
	C281.045502,249.643997 283.977997,254.591965 282.884094,261.179565 
	C281.674988,268.461273 276.823120,273.245453 269.915466,274.816071 
	C264.194977,276.116821 258.108337,275.807220 251.494659,276.258026 
	C251.494659,272.568176 251.494659,269.628845 251.886627,266.348938 
	C255.935349,266.006653 259.597931,266.134674 263.247375,265.970673 
	C267.888794,265.762054 270.822083,262.890106 270.706482,258.971863 
	C270.591217,255.066010 267.525299,252.184204 263.075531,251.994751 
	C260.155426,251.870438 257.225677,251.971268 254.396515,251.971268 
	C254.396515,248.382507 254.396515,245.462555 254.396515,242.137604 
	C257.446167,242.137604 260.235138,242.144516 263.024048,242.135773 
	C266.165833,242.125946 268.051025,240.735580 268.212006,237.422028 
	C268.375488,234.057190 266.518555,232.466599 263.425812,232.336655 
	C259.641815,232.177689 255.846024,232.298767 251.393738,232.298767 
	C251.393738,243.703430 251.393738,254.791260 251.393738,265.879089 
z"/>
<path fill="#060505" opacity="1.000000" stroke="none" 
	d="
M56.375214,264.644165 
	C56.336681,261.717926 56.336681,259.246246 56.336681,256.484131 
	C61.958115,255.629715 68.524292,257.522003 71.792038,251.549377 
	C73.280991,248.827911 74.050934,245.152725 73.683487,242.085464 
	C72.742432,234.230103 66.272438,231.309250 53.842735,232.699768 
	C53.842735,246.886154 53.842735,261.133362 53.842735,275.625244 
	C49.797161,275.625244 46.206383,275.625244 41.929081,275.625244 
	C41.929081,266.911743 41.929085,258.162109 41.929085,249.412476 
	C41.929085,240.612823 41.929081,231.813171 41.929081,222.970642 
	C51.064873,222.970642 59.904480,222.375488 68.628532,223.125107 
	C78.944435,224.011505 86.616241,233.731369 86.584122,244.404846 
	C86.552223,255.005386 78.726021,264.526550 68.519485,265.679688 
	C64.556694,266.127380 60.453167,265.329346 56.375214,264.644165 
z"/>
<path fill="#060606" opacity="1.000000" stroke="none" 
	d="
M180.011658,261.861633 
	C180.392288,264.938202 179.748230,266.404816 176.653214,266.065857 
	C174.192413,265.796387 171.678543,266.011536 168.579636,266.011536 
	C168.579636,260.706390 168.582642,255.605331 168.578949,250.504257 
	C168.572830,242.024338 168.155899,241.661514 158.775589,242.459717 
	C158.775589,250.128891 158.775589,257.860870 158.775589,265.795898 
	C154.652710,265.795898 151.076614,265.795898 147.073074,265.795898 
	C147.073074,260.637787 147.073700,255.682495 147.072937,250.727203 
	C147.071625,242.125824 146.171402,241.352661 137.264130,242.595093 
	C137.264130,250.166916 137.264130,257.785797 137.264130,265.706604 
	C133.440063,265.706604 129.900955,265.706604 126.113083,265.706604 
	C126.113083,254.749023 126.113083,243.824661 126.113083,232.043060 
	C136.827835,234.163849 148.741928,227.790085 158.257431,238.343063 
	C158.550369,236.248734 158.809708,234.394669 159.103668,232.293045 
	C162.084610,232.293045 164.901199,232.166214 167.702728,232.317932 
	C174.782806,232.701324 179.780273,237.769943 179.977966,244.884995 
	C180.130585,250.378433 180.010513,255.879456 180.011658,261.861633 
z"/>
<path fill="#0A0A09" opacity="1.000000" stroke="none" 
	d="
M384.966919,242.128799 
	C382.513550,242.148239 380.497711,241.997726 378.527954,242.232941 
	C375.250732,242.624329 373.340698,244.697662 373.456390,247.942474 
	C373.571960,251.184998 375.518646,253.100586 378.929474,253.168137 
	C380.583008,253.200912 382.237762,253.173798 384.279358,253.173798 
	C384.279358,256.468689 384.279358,259.505829 384.279358,262.784882 
	C380.490936,262.784882 376.642731,263.279999 372.973785,262.679596 
	C365.813812,261.507904 360.928345,255.349579 360.865631,248.294922 
	C360.799072,240.807602 365.786377,233.778610 373.206604,233.042618 
	C381.411957,232.228760 389.760284,232.856674 398.851562,232.856674 
	C398.851562,236.409561 398.853027,240.312241 398.851227,244.214920 
	C398.848328,250.535248 399.005310,256.860870 398.800018,263.174622 
	C398.511444,272.049957 394.517242,275.824860 385.752167,275.885132 
	C381.783966,275.912415 377.815430,275.889740 373.530853,275.889740 
	C373.530853,272.650055 373.530853,269.726837 373.530853,265.979828 
	C376.541687,265.979828 379.821838,266.296265 382.991333,265.841461 
	C384.493866,265.625854 386.921936,264.002319 386.984924,262.904877 
	C387.355988,256.442169 387.188171,249.945923 387.070862,243.463348 
	C387.062653,243.009872 385.998383,242.575485 384.966919,242.128799 
z"/>
<path fill="#0A0A09" opacity="1.000000" stroke="none" 
	d="
M347.074280,224.491180 
	C350.710876,223.353363 354.338837,222.669205 358.372986,221.908463 
	C358.372986,237.242172 358.372986,251.442459 358.372986,265.897461 
	C350.686310,265.897461 343.207336,266.298065 335.790863,265.788666 
	C327.828491,265.241760 321.018433,256.988708 321.029633,248.889938 
	C321.041351,240.418030 326.928192,233.633835 335.471893,232.569580 
	C338.229889,232.226028 341.066742,232.515701 344.204163,232.515701 
	C344.204163,235.633636 344.204163,238.687317 344.204163,241.737503 
	C336.268463,242.725220 333.043030,245.375656 333.765686,250.232849 
	C334.475433,255.003525 338.237518,256.619324 347.065613,255.713501 
	C347.065613,245.490707 347.065613,235.217773 347.074280,224.491180 
z"/>
<path fill="#070706" opacity="1.000000" stroke="none" 
	d="
M203.886932,242.117264 
	C197.351776,242.523834 194.511902,244.824875 194.674393,249.254044 
	C194.837921,253.711761 197.950882,256.074493 203.809570,256.110931 
	C209.121338,256.143982 214.433487,256.117950 219.975830,256.117950 
	C219.975830,259.468842 219.975830,262.580994 219.975830,265.870972 
	C212.732574,265.870972 205.577759,266.289764 198.492142,265.768219 
	C188.982513,265.068237 182.185196,257.954926 182.040207,249.472443 
	C181.904892,241.554672 188.713943,233.794647 197.738922,232.903290 
	C204.967087,232.189392 212.322037,232.759033 219.676804,232.759033 
	C222.470596,247.124100 214.795761,255.244629 200.233170,252.712692 
	C202.542740,249.418304 204.796417,246.203659 207.431915,242.444382 
	C206.032043,242.298553 205.161743,242.207886 203.886932,242.117264 
z"/>
<path fill="#060606" opacity="1.000000" stroke="none" 
	d="
M402.781311,242.035583 
	C406.514801,236.095490 411.659180,232.906204 418.207123,232.591675 
	C424.980560,232.266296 431.781769,232.519257 438.536469,232.519257 
	C440.692932,247.514496 433.922333,254.633026 418.979248,252.823502 
	C421.360504,249.356827 423.642334,246.034897 426.326782,242.126831 
	C424.024506,242.126831 422.428711,242.042374 420.844635,242.142776 
	C416.225616,242.435547 413.183380,245.293594 413.291718,249.145401 
	C413.400482,253.010864 416.526276,255.981659 420.955475,256.079468 
	C426.762421,256.207733 432.574310,256.110931 438.703247,256.110931 
	C438.703247,259.423187 438.703247,262.477325 438.703247,265.839905 
	C431.430786,265.839905 424.091797,266.430511 416.884033,265.709320 
	C404.280823,264.448273 397.995911,253.726776 402.781311,242.035583 
z"/>
<path fill="#070707" opacity="1.000000" stroke="none" 
	d="
M307.127808,255.779785 
	C307.563110,247.909256 307.563110,240.277496 307.563110,232.470001 
	C311.641022,232.470001 315.072266,232.470001 318.789185,232.470001 
	C318.789185,243.573380 318.789185,254.491806 318.789185,265.776642 
	C311.290375,265.776642 303.659851,266.235260 296.114685,265.629974 
	C290.190887,265.154785 285.681915,260.127838 285.340240,254.183456 
	C284.932159,247.083847 285.244019,239.942856 285.244019,232.552429 
	C289.007812,232.552429 292.449615,232.552429 296.721497,232.552429 
	C296.721497,237.048462 296.720459,241.635223 296.721710,246.221985 
	C296.724457,256.324768 296.724915,256.324768 307.127808,255.779785 
z"/>
<path fill="#060606" opacity="1.000000" stroke="none" 
	d="
M464.583923,259.271484 
	C464.584961,261.671997 464.584961,263.626770 464.584961,265.894379 
	C460.027008,265.894379 455.884033,266.221893 451.814636,265.814545 
	C446.273376,265.259827 442.039490,260.875610 441.956818,255.655670 
	C441.785919,244.867645 441.905334,234.075027 441.905334,222.932602 
	C445.626129,222.932602 449.162384,222.932602 453.075195,222.932602 
	C453.075195,225.843933 453.075195,228.784256 453.075195,232.102661 
	C456.875244,232.102661 460.314697,232.102661 464.169495,232.102661 
	C464.169495,235.505951 464.169495,238.539749 464.169495,242.063324 
	C460.615662,242.063324 457.041443,242.063324 453.180115,242.063324 
	C453.180115,244.021225 453.184448,245.503983 453.179413,246.986710 
	C453.150452,255.525970 453.157928,255.438339 461.593231,256.230377 
	C462.661591,256.330688 463.589752,257.924103 464.583923,259.271484 
z"/>
<path fill="#050504" opacity="1.000000" stroke="none" 
	d="
M100.008698,258.948547 
	C100.008698,261.418274 100.008698,263.399506 100.008698,265.694122 
	C96.264015,265.694122 92.690514,265.694122 88.826782,265.694122 
	C88.826782,258.155609 88.511490,250.527023 88.927452,242.938522 
	C89.254822,236.966415 93.697227,232.937546 99.702789,232.419769 
	C102.823074,232.150772 105.985664,232.372406 109.501724,232.372406 
	C109.501724,235.601547 109.501724,238.647949 109.503769,241.698822 
	C100.195290,242.928070 100.009125,243.148849 100.008705,252.967239 
	C100.008629,254.798187 100.008698,256.629150 100.008698,258.948547 
z"/>
<path fill="#E8E4DE" opacity="1.000000" stroke="none" 
	d="
M251.362152,265.840271 
	C251.393738,254.791260 251.393738,243.703430 251.393738,232.298767 
	C255.846024,232.298767 259.641815,232.177689 263.425812,232.336655 
	C266.518555,232.466599 268.375488,234.057190 268.212006,237.422028 
	C268.051025,240.735580 266.165833,242.125946 263.024048,242.135773 
	C260.235138,242.144516 257.446167,242.137604 254.396515,242.137604 
	C254.396515,245.462555 254.396515,248.382507 254.396515,251.971268 
	C257.225677,251.971268 260.155426,251.870438 263.075531,251.994751 
	C267.525299,252.184204 270.591217,255.066010 270.706482,258.971863 
	C270.822083,262.890106 267.888794,265.762054 263.247375,265.970673 
	C259.597931,266.134674 255.935349,266.006653 251.757294,265.888519 
	C251.235992,265.768677 251.330582,265.801422 251.362152,265.840271 
z"/>
<path fill="#020202" opacity="1.000000" stroke="none" 
	d="
M113.163071,265.971008 
	C112.415176,261.385864 112.025871,256.831146 111.914421,252.269592 
	C111.780380,246.783981 111.882721,241.292572 111.882721,235.473511 
	C115.640060,235.473511 119.180588,235.473511 122.947662,235.473511 
	C122.947662,245.555450 122.947662,255.490509 122.947662,265.998383 
	C119.860573,265.998383 116.752647,265.998383 113.163071,265.971008 
z"/>
<path fill="#000000" opacity="1.000000" stroke="none" 
	d="
M114.064896,232.265823 
	C112.778633,229.288177 111.985527,226.315750 111.062271,222.855530 
	C115.649384,222.855530 119.048370,222.855530 122.807343,222.855530 
	C122.807343,225.735733 122.807343,228.747040 122.807343,232.271027 
	C120.056488,232.271027 117.307266,232.271027 114.064896,232.265823 
z"/>
</svg>