<svg width="475" height="475" viewBox="0 0 475 475" fill="none" xmlns="http://www.w3.org/2000/svg">
<path d="M381.227 253.221C380.124 268.172 391.649 289.574 391.649 289.574H394.426C394.067 268.78 385.609 263.645 381.227 253.221Z" fill="white"/>
<path d="M381.883 252.945C381.587 252.272 380.581 252.431 380.524 253.175C379.457 267.537 389.829 287.644 391.024 289.908C391.454 290.739 392.726 290.079 392.28 289.237C392.177 289.046 382.327 270.562 381.888 256.268C386.412 264.983 393.397 270.851 393.721 289.58C393.721 290.539 395.145 290.502 395.141 289.565C394.781 268.545 386.255 263.324 381.883 252.945Z" fill="black"/>
<path d="M427.472 253.221C423.091 263.643 410.074 273.757 410.074 289.574H417.048C417.048 289.574 428.574 268.172 427.472 253.221Z" fill="white"/>
<path d="M428.184 253.168C428.13 252.433 427.108 252.258 426.819 252.945C422.51 263.199 409.364 273.502 409.364 289.569C409.364 290.509 410.784 290.509 410.784 289.569C410.784 275.382 421.645 265.684 426.823 256.177C426.423 270.478 416.529 289.043 416.424 289.237C415.98 290.077 417.241 290.732 417.681 289.906C417.797 289.692 429.302 268.254 428.184 253.168Z" fill="black"/>
<path d="M398.443 289.574H406.448C411.736 264.398 411.132 240.841 411.736 224.529C402.372 244.465 398.443 289.574 398.443 289.574Z" fill="white"/>
<path d="M411.087 224.229C401.867 243.859 397.897 287.657 397.733 289.51C397.642 290.436 399.053 290.586 399.149 289.635C399.183 289.23 402.69 249.329 410.905 228.275C410.349 248.989 410.39 267.33 405.752 289.426C405.554 290.35 406.938 290.63 407.133 289.719C412.396 264.685 411.815 241.758 412.434 224.556C412.466 223.778 411.41 223.539 411.087 224.229Z" fill="black"/>
<path d="M392.25 232.381C387.571 245.673 394.365 289.574 394.365 289.574H400.558C400.198 268.78 393.757 251.607 392.25 232.381Z" fill="white"/>
<path d="M392.96 232.325C392.897 231.596 391.854 231.4 391.586 232.149C387.532 243.659 391.863 277.836 393.666 289.683C393.823 290.666 395.205 290.329 395.068 289.462C395.009 289.08 389.492 252.922 391.964 236.722C394.03 254.609 399.527 270.368 399.85 289.585C399.871 290.518 401.27 290.514 401.27 289.562C400.904 268.57 394.472 251.623 392.96 232.325Z" fill="black"/>
<path d="M420.796 233.892C419.287 253.118 406.296 268.782 405.938 289.571H412.132C412.132 289.571 426.081 251.605 420.796 233.892Z" fill="white"/>
<path d="M421.468 233.699C421.252 232.975 420.157 233.035 420.084 233.843C418.575 253.048 405.59 268.516 405.224 289.571C405.224 290.168 405.936 290.543 406.419 290.09C406.56 289.954 406.644 289.769 406.644 289.587C406.981 269.911 417.924 256.55 420.965 238.276C423.314 256.826 411.585 288.989 411.46 289.328C411.16 290.174 412.452 290.732 412.796 289.815C413.365 288.242 426.666 251.115 421.468 233.699Z" fill="black"/>
<path d="M415.575 328.605H393.552L389.451 289.573H419.679L415.575 328.605Z" fill="white"/>
<path d="M420.196 289.091C419.87 288.738 420.189 288.863 389.446 288.863C389.032 288.863 388.707 289.212 388.743 289.646L392.844 328.683C392.89 329.042 393.19 329.313 393.552 329.313H415.584C415.944 329.304 416.242 329.035 416.281 328.678C420.448 289.116 420.532 289.478 420.196 289.091ZM418.891 290.284L414.938 327.893H394.196L390.245 290.284H418.891Z" fill="black"/>
<path d="M453.264 327.804H21.7359C20.6753 327.804 20.6753 329.409 21.7359 329.409H453.264C454.325 329.409 454.325 327.804 453.264 327.804Z" fill="black"/>
<path d="M380.435 61.9718H131.978V222.419H380.435V61.9718Z" fill="white"/>
<path d="M382.734 224.718H129.68V59.6731H382.734V224.718ZM134.277 220.12H378.137V64.2707H134.277V220.12Z" fill="black"/>
<path d="M117.143 33.5486H386.965C388.593 33.5486 389.917 34.8732 389.917 36.5006V56.7392C389.917 58.3665 388.593 59.6912 386.965 59.6912H123.976C120.206 59.6912 117.143 56.6299 117.143 52.8585V33.5486Z" fill="white"/>
<path d="M386.963 32.7245H117.141C116.688 32.7245 116.321 33.0955 116.321 33.5484V52.8561C116.321 57.0781 119.754 60.5104 123.973 60.5104H386.963C389.046 60.5104 390.737 58.817 390.737 56.7367V36.5004C390.737 34.4179 389.046 32.7245 386.963 32.7245ZM386.963 58.8717L385.327 58.8671C384.152 58.8671 383.196 57.9134 383.196 56.739V36.5004C383.196 35.326 384.152 34.3723 385.327 34.3723H386.963C388.14 34.3723 389.096 35.326 389.096 36.5004V56.7436C389.096 57.918 388.14 58.8717 386.963 58.8717ZM117.969 40.8454H381.555C381.555 58.0773 381.316 57.5698 382.229 58.8717H123.978C120.664 58.8717 117.967 56.1768 117.967 52.8629L117.969 40.8454ZM117.969 39.1975V34.3701H382.227C381.357 35.6128 381.555 36.6325 381.555 39.1975H117.969Z" fill="black"/>
<path d="M258.392 102.116H219.23C218.136 102.116 218.136 100.462 219.23 100.462H258.392C259.487 100.462 259.487 102.116 258.392 102.116Z" fill="black"/>
<path d="M249.572 109.37H219.228C218.133 109.37 218.133 107.716 219.228 107.716H249.572C250.667 107.716 250.667 109.37 249.572 109.37Z" fill="black"/>
<path d="M254.295 116.626H219.23C218.136 116.626 218.136 114.972 219.23 114.972H254.295C255.39 114.972 255.39 116.626 254.295 116.626Z" fill="black"/>
<path d="M191.217 113.399C188.142 120.61 179.898 124.224 172.424 121.411L166.451 137.227C182.286 143.208 200.091 135.659 206.765 120.025L191.217 113.399Z" fill="#875C00"/>
<path d="M206.99 119.474L191.437 112.848C191.13 112.723 190.782 112.864 190.659 113.162C187.834 119.781 180.292 123.6 172.628 120.851C172.319 120.739 171.991 120.887 171.861 121.201L165.889 137.015C165.777 137.318 165.941 137.661 166.246 137.78C182.213 143.807 200.439 136.357 207.306 120.254C207.436 119.954 207.283 119.59 206.99 119.474ZM167.216 136.867L172.769 122.166C180.146 124.629 188.205 121.153 191.508 114.166L205.97 120.329C199.308 135.162 182.365 142.273 167.216 136.867Z" fill="black"/>
<path d="M177.636 92.8623V75.9626C160.156 75.9626 145.987 90.131 145.987 107.611H162.885C162.885 99.4628 169.49 92.8623 177.636 92.8623Z" fill="white"/>
<path d="M177.636 75.3663C159.857 75.3663 145.393 89.8306 145.393 107.611C145.393 107.939 145.659 108.207 145.987 108.207L162.882 108.212C163.21 108.212 163.481 107.941 163.481 107.613C163.481 99.8065 169.831 93.4586 177.638 93.4586C177.966 93.4586 178.232 93.19 178.232 92.8623V75.9627C178.232 75.6349 177.963 75.3663 177.636 75.3663ZM146.59 107.015C146.904 90.4701 160.495 76.8776 177.046 76.5613V92.2728C169.025 92.58 162.609 98.9939 162.304 107.015H146.59Z" fill="black"/>
<path d="M162.885 107.609H145.987C145.987 121.151 154.495 132.707 166.454 137.227L172.426 121.411C166.854 119.306 162.885 113.92 162.885 107.609Z" fill="black"/>
<path d="M172.628 120.85C167.154 118.784 163.481 113.465 163.481 107.611C163.481 107.283 163.217 107.012 162.889 107.012H145.987C145.662 107.012 145.393 107.281 145.393 107.608C145.393 120.939 153.673 133.312 166.244 137.779C167.054 138.066 166.77 138.296 172.986 121.615C173.099 121.312 172.936 120.971 172.628 120.85ZM171.663 121.747L166.11 136.45C154.645 131.857 146.836 120.559 146.595 108.209H162.306C162.536 114.154 166.182 119.428 171.663 121.747Z" fill="black"/>
<path d="M191.13 113.196L206.587 119.786C215.366 99.1783 200.296 75.9855 177.631 75.9855V92.7849C188.183 92.7849 195.229 103.596 191.13 113.196Z" fill="#FFD997"/>
<path d="M177.631 75.3886C177.301 75.3886 177.035 75.6549 177.035 75.9827V92.7821C177.035 93.1099 177.301 93.3785 177.631 93.3785C185.39 93.3785 191.704 99.6899 191.704 107.449C191.704 111.273 190.35 112.85 190.577 113.414C190.716 113.774 189.747 113.16 206.357 120.331C206.644 120.454 206.999 120.309 207.129 120.008C216.105 99.0094 200.64 75.3886 177.631 75.3886ZM178.23 92.1995V76.5881C199.634 76.9955 214.387 98.9183 206.271 119.002L191.9 112.88C195.664 103.011 188.404 92.5955 178.23 92.1995Z" fill="black"/>
<path d="M292.421 107.206H285.763V149.379H292.421V107.206Z" fill="#875C00"/>
<path d="M292.416 149.793H285.759C285.529 149.793 285.345 149.608 285.345 149.378V107.206C285.345 106.976 285.529 106.791 285.759 106.791H292.416C292.646 106.791 292.831 106.976 292.831 107.206V149.378C292.831 149.608 292.646 149.793 292.416 149.793ZM286.173 148.964H292.002V107.62H286.173V148.964Z" fill="black"/>
<path d="M299.074 119.797H292.416C292.189 119.797 292.002 119.983 292.002 120.211V149.376C292.002 149.605 292.189 149.791 292.416 149.791H299.074C299.304 149.791 299.488 149.605 299.488 149.376V120.211C299.488 119.983 299.304 119.797 299.074 119.797Z" fill="black"/>
<path d="M313.065 92.434H306.407V149.378H313.065V92.434Z" fill="#875C00"/>
<path d="M313.065 149.793H306.407C306.177 149.793 305.993 149.608 305.993 149.378V92.4341C305.993 92.2043 306.177 92.0199 306.407 92.0199H313.065C313.294 92.0199 313.479 92.2043 313.479 92.4341V149.378C313.479 149.608 313.294 149.793 313.065 149.793ZM306.821 148.964H312.65V92.8484H306.821V148.964Z" fill="black"/>
<path d="M319.722 111.219H313.065C312.837 111.219 312.65 111.404 312.65 111.633V149.376C312.65 149.605 312.837 149.791 313.065 149.791H319.722C319.952 149.791 320.136 149.605 320.136 149.376V111.633C320.136 111.404 319.952 111.219 319.722 111.219Z" fill="black"/>
<path d="M333.711 79.0144H327.053V149.383H333.711V79.0144Z" fill="#875C00"/>
<path d="M333.713 149.793H327.055C326.826 149.793 326.641 149.608 326.641 149.378V79.0146C326.641 78.7847 326.826 78.6003 327.055 78.6003H333.713C333.943 78.6003 334.127 78.7847 334.127 79.0146V149.378C334.127 149.608 333.943 149.793 333.713 149.793ZM327.47 148.964H333.299V79.4265H327.47V148.964Z" fill="black"/>
<path d="M340.368 91.5376H333.711C333.481 91.5376 333.296 91.7231 333.296 91.9518V149.379C333.296 149.607 333.481 149.793 333.711 149.793H340.368C340.596 149.793 340.782 149.607 340.782 149.379V91.9518C340.782 91.7231 340.596 91.5376 340.368 91.5376Z" fill="black"/>
<path d="M287.498 174.536H279.7C278.671 174.536 277.829 173.698 277.829 172.665V164.867C277.829 163.838 278.667 162.996 279.7 162.996H287.498C288.529 162.996 289.364 163.834 289.364 164.867V172.665C289.364 173.694 288.527 174.536 287.498 174.536ZM279.7 163.829C279.124 163.829 278.655 164.298 278.655 164.867V172.665C278.655 173.238 279.124 173.71 279.7 173.71H287.498C288.074 173.71 288.542 173.241 288.542 172.665V164.867C288.542 164.294 288.074 163.829 287.498 163.829H279.7Z" fill="black"/>
<path d="M283.198 171.759C282.547 171.759 282.591 171.547 280.057 167.211C279.502 166.26 280.938 165.436 281.482 166.374L283.358 169.569L290.327 162.357C291.089 161.571 292.28 162.721 291.517 163.506C283.141 172.153 283.697 171.759 283.198 171.759Z" fill="black"/>
<path d="M322.314 166.039H296.274C295.234 166.039 294.39 166.883 294.39 167.924V169.125C294.39 170.166 295.234 171.01 296.274 171.01H322.314C323.355 171.01 324.199 170.166 324.199 169.125V167.924C324.199 166.883 323.355 166.039 322.314 166.039Z" fill="#875C00"/>
<path d="M322.314 171.422H296.274C295.004 171.422 293.975 170.393 293.975 169.123V167.924C293.975 166.656 295.004 165.625 296.274 165.625H322.314C323.582 165.625 324.613 166.654 324.613 167.924V169.123C324.613 170.391 323.584 171.422 322.314 171.422ZM296.274 166.453C295.466 166.453 294.804 167.111 294.804 167.924V169.123C294.804 169.931 295.462 170.594 296.274 170.594H322.314C323.122 170.594 323.785 169.936 323.785 169.123V167.924C323.785 167.116 323.127 166.453 322.314 166.453H296.274Z" fill="black"/>
<path d="M347.606 166.039H329.072C328.032 166.039 327.187 166.883 327.187 167.924V169.125C327.187 170.166 328.032 171.01 329.072 171.01H347.606C348.646 171.01 349.49 170.166 349.49 169.125V167.924C349.49 166.883 348.646 166.039 347.606 166.039Z" fill="#FFD997"/>
<path d="M347.606 171.422H329.074C327.804 171.422 326.775 170.393 326.775 169.123V167.924C326.775 166.656 327.804 165.625 329.074 165.625H347.606C348.876 165.625 349.905 166.654 349.905 167.924V169.123C349.905 170.391 348.876 171.422 347.606 171.422ZM329.074 166.453C328.266 166.453 327.604 167.111 327.604 167.924V169.123C327.604 169.931 328.262 170.594 329.074 170.594H347.606C348.416 170.594 349.076 169.936 349.076 169.123V167.924C349.076 167.116 348.418 166.453 347.606 166.453H329.074Z" fill="black"/>
<path d="M287.498 190.047H279.7C278.671 190.047 277.829 189.209 277.829 188.176V180.378C277.829 179.35 278.667 178.507 279.7 178.507H287.498C288.529 178.507 289.364 179.345 289.364 180.378V188.176C289.364 189.205 288.527 190.047 287.498 190.047ZM279.7 179.34C279.124 179.34 278.655 179.809 278.655 180.378V188.176C278.655 188.75 279.124 189.221 279.7 189.221H287.498C288.074 189.221 288.542 188.752 288.542 188.176V180.378C288.542 179.805 288.074 179.34 287.498 179.34H279.7Z" fill="black"/>
<path d="M283.198 187.279C282.563 187.279 282.602 187.079 280.057 182.727C279.502 181.776 280.938 180.952 281.482 181.89L283.358 185.085L290.327 177.872C291.087 177.09 292.282 178.232 291.517 179.026C283.171 187.7 283.697 187.279 283.198 187.279Z" fill="black"/>
<path d="M322.314 181.555H296.274C295.234 181.555 294.39 182.398 294.39 183.439V184.641C294.39 185.682 295.234 186.526 296.274 186.526H322.314C323.355 186.526 324.199 185.682 324.199 184.641V183.439C324.199 182.398 323.355 181.555 322.314 181.555Z" fill="#875C00"/>
<path d="M322.314 186.94H296.274C295.004 186.94 293.975 185.911 293.975 184.641V183.442C293.975 182.174 295.004 181.143 296.274 181.143H322.314C323.582 181.143 324.613 182.172 324.613 183.442V184.641C324.613 185.909 323.584 186.94 322.314 186.94ZM296.274 181.969C295.466 181.969 294.804 182.627 294.804 183.439V184.639C294.804 185.447 295.462 186.109 296.274 186.109H322.314C323.122 186.109 323.785 185.451 323.785 184.639V183.439C323.785 182.631 323.127 181.969 322.314 181.969H296.274Z" fill="black"/>
<path d="M347.606 181.555H329.072C328.032 181.555 327.187 182.398 327.187 183.439V184.641C327.187 185.682 328.032 186.526 329.072 186.526H347.606C348.646 186.526 349.49 185.682 349.49 184.641V183.439C349.49 182.398 348.646 181.555 347.606 181.555Z" fill="#FFD997"/>
<path d="M347.606 186.94H329.074C327.804 186.94 326.775 185.911 326.775 184.641V183.442C326.775 182.174 327.804 181.143 329.074 181.143H347.606C348.876 181.143 349.905 182.172 349.905 183.442V184.641C349.905 185.909 348.876 186.94 347.606 186.94ZM329.074 181.969C328.266 181.969 327.604 182.627 327.604 183.439V184.639C327.604 185.447 328.262 186.109 329.074 186.109H347.606C348.416 186.109 349.076 185.451 349.076 184.639V183.439C349.076 182.631 348.418 181.969 347.606 181.969H329.074Z" fill="black"/>
<path d="M287.498 205.565H279.7C278.671 205.565 277.829 204.727 277.829 203.694V195.896C277.829 194.867 278.667 194.025 279.7 194.025H287.498C288.529 194.025 289.364 194.863 289.364 195.896V203.694C289.364 204.722 288.527 205.565 287.498 205.565ZM279.7 194.858C279.124 194.858 278.655 195.327 278.655 195.896V203.694C278.655 204.267 279.124 204.732 279.7 204.732H287.498C288.074 204.732 288.542 204.263 288.542 203.694V195.896C288.542 195.322 288.074 194.858 287.498 194.858H279.7Z" fill="black"/>
<path d="M283.198 202.786C282.547 202.786 282.591 202.574 280.057 198.238C279.502 197.287 280.938 196.465 281.482 197.401L283.358 200.596L290.327 193.384C291.089 192.598 292.28 193.748 291.517 194.533C283.141 203.18 283.697 202.786 283.198 202.786Z" fill="black"/>
<path d="M322.314 197.073H296.274C295.234 197.073 294.39 197.917 294.39 198.957V200.159C294.39 201.2 295.234 202.044 296.274 202.044H322.314C323.355 202.044 324.199 201.2 324.199 200.159V198.957C324.199 197.917 323.355 197.073 322.314 197.073Z" fill="#875C00"/>
<path d="M322.314 202.451H296.274C295.004 202.451 293.975 201.422 293.975 200.152V198.953C293.975 197.685 295.004 196.654 296.274 196.654H322.314C323.582 196.654 324.613 197.683 324.613 198.953V200.152C324.613 201.42 323.584 202.451 322.314 202.451ZM296.274 197.48C295.466 197.48 294.804 198.138 294.804 198.951V200.15C294.804 200.958 295.462 201.62 296.274 201.62H322.314C323.122 201.62 323.785 200.963 323.785 200.15V198.951C323.785 198.143 323.127 197.48 322.314 197.48H296.274Z" fill="black"/>
<path d="M347.606 197.073H329.072C328.032 197.073 327.187 197.917 327.187 198.957V200.159C327.187 201.2 328.032 202.044 329.072 202.044H347.606C348.646 202.044 349.49 201.2 349.49 200.159V198.957C349.49 197.917 348.646 197.073 347.606 197.073Z" fill="#FFD997"/>
<path d="M347.606 202.451H329.074C327.804 202.451 326.775 201.422 326.775 200.152V198.953C326.775 197.685 327.804 196.654 329.074 196.654H347.606C348.876 196.654 349.905 197.683 349.905 198.953V200.152C349.905 201.42 348.876 202.451 347.606 202.451ZM329.074 197.48C328.266 197.48 327.604 198.138 327.604 198.951V200.15C327.604 200.958 328.262 201.62 329.074 201.62H347.606C348.416 201.62 349.076 200.963 349.076 200.15V198.951C349.076 198.143 348.418 197.48 347.606 197.48H329.074Z" fill="black"/>
<path d="M359.792 148.896L355.884 144.988C355.253 144.346 354.256 145.309 354.91 145.962L357.684 148.737H280.576V76.2197C283.355 78.9987 283.419 79.2013 283.842 79.2013C284.439 79.2013 284.778 78.4707 284.33 78.0246L280.422 74.1166C280.155 73.8457 279.718 73.8457 279.445 74.1166L275.537 78.0246C274.895 78.655 275.858 79.6519 276.511 78.9987L279.29 76.2197V149.378C279.29 149.731 279.577 150.018 279.93 150.018H357.691L354.907 152.802C354.468 153.234 354.789 153.978 355.394 153.978C355.786 153.978 355.556 154.065 359.789 149.868C360.06 149.599 360.063 149.167 359.792 148.896Z" fill="black"/>
<path d="M189.797 191.936H98.0858V199.171H189.797V191.936Z" fill="white"/>
<path d="M221.078 191.936H189.796V199.171H221.078V191.936Z" fill="white"/>
<path d="M189.796 328.605H118.959L105.157 199.169L189.796 199.171V328.605Z" fill="#FFD997"/>
<path d="M189.796 328.605H207.147L216.337 199.169L189.796 199.171V328.605Z" fill="#FFD997"/>
<path d="M221.078 191.221H98.0856C97.6941 191.221 97.3778 191.542 97.3778 191.931V199.169C97.3778 199.561 97.6964 199.879 98.0856 199.879H104.515L118.251 328.692C118.295 329.047 118.597 329.315 118.957 329.315H207.144C207.493 329.315 207.83 329.038 207.855 328.653L216.997 199.879H221.076C221.468 199.879 221.786 199.561 221.786 199.169V191.931C221.786 191.54 221.47 191.221 221.078 191.221ZM190.511 327.897V199.879H215.579L206.489 327.897H190.511ZM220.366 192.641V198.459H190.507V192.641H220.366ZM189.084 199.879V327.897H119.594L105.945 199.879H189.084ZM189.084 192.641V198.459H98.7957V192.641H189.084Z" fill="black"/>
<path d="M216.294 200.464L189.913 201.684V199.071L216.408 199.16L216.294 200.464Z" fill="black"/>
<path d="M105.376 200.56L189.913 201.684V199.071L105.244 199.16L105.376 200.56Z" fill="black"/>
<path d="M183.332 187.673H105.929V191.939H183.332V187.673Z" fill="#875C00"/>
<path d="M183.332 186.959H105.929C105.537 186.959 105.219 187.277 105.219 187.666V191.932C105.219 192.323 105.537 192.64 105.929 192.64H183.335C183.726 192.64 184.045 192.321 184.045 191.932V187.666C184.045 187.275 183.724 186.959 183.332 186.959ZM182.622 188.379V191.222H106.639V188.379H182.622Z" fill="black"/>
<path d="M160.092 191.932L105.927 191.936L93.2081 149.304C92.9281 148.357 93.6269 147.396 94.6283 147.396H144.608C145.914 147.396 147.064 148.252 147.435 149.502L160.092 191.932Z" fill="#875C00"/>
<path d="M160.772 191.733L148.118 149.304C147.658 147.763 146.215 146.688 144.61 146.688H94.6306C93.1671 146.688 92.1087 148.106 92.5275 149.508L105.244 192.136C105.333 192.432 105.615 192.642 105.929 192.642L160.099 192.646C160.568 192.646 160.911 192.193 160.772 191.733ZM159.143 191.221H106.459L93.8932 149.099C93.7407 148.603 94.123 148.106 94.6329 148.106H144.612C145.598 148.106 146.479 148.762 146.757 149.704L159.143 191.221Z" fill="black"/>
<path d="M122.558 163.665C125.264 162.978 128.211 165.382 129.142 169.035C130.071 172.688 128.63 176.209 125.924 176.898C123.218 177.586 120.27 175.182 119.339 171.529C118.411 167.876 119.851 164.355 122.558 163.665Z" fill="white"/>
<path d="M129.739 168.88C128.835 165.334 125.767 162.213 122.403 163.065C119.371 163.841 117.728 167.703 118.741 171.677C119.631 175.159 122.665 178.334 126.076 177.488C129.472 176.627 130.631 172.389 129.739 168.88ZM122.71 164.266C125.35 163.595 127.795 166.249 128.541 169.187C129.263 172.037 128.441 175.619 125.767 176.297C123.149 176.962 120.68 174.308 119.936 171.377C119.093 168.058 120.338 164.869 122.71 164.266Z" fill="black"/>
<path d="M153.912 187.054H109.466C108.649 187.054 108.649 188.292 109.466 188.292H153.912C154.729 188.292 154.729 187.054 153.912 187.054Z" fill="black"/>
<path d="M204.6 167.177H203.106L202.399 164.243C202.296 163.836 203.177 163.963 188.41 163.963C188.014 163.963 188.087 164.093 187.343 167.177H185.845C185.642 167.177 185.476 167.343 185.476 167.546V169.922C185.476 170.124 185.642 170.29 185.845 170.29H204.602C204.804 170.29 204.971 170.124 204.971 169.922V167.546C204.971 167.343 204.802 167.177 204.6 167.177Z" fill="black"/>
<path d="M201.896 191.774H188.549L187.63 170.115H202.815L201.896 191.774Z" fill="white"/>
<path d="M203.33 169.626C203.022 169.298 204.142 169.401 187.63 169.401C187.265 169.401 186.917 169.685 186.924 170.145L187.841 191.804C187.862 192.181 188.174 192.48 188.549 192.48H201.896C202.276 192.48 202.588 192.179 202.601 191.799C203.58 168.333 203.639 169.954 203.33 169.626ZM188.565 175.623H201.864L201.484 184.609H188.947L188.565 175.623ZM202.067 170.828L201.916 174.385H188.513L188.363 170.828H202.067ZM189.221 191.062L189 185.849H201.432L201.211 191.062H189.221Z" fill="black"/>
<path d="M198.286 159.327C198.259 159.279 195.593 154.308 198.02 151.142C198.58 150.407 197.476 149.535 196.893 150.282C193.868 154.231 197.018 159.96 197.055 160.026C197.524 160.818 198.718 160.151 198.286 159.327Z" fill="black"/>
<path d="M194.257 149.467C194.833 148.741 193.713 147.853 193.133 148.602C191.396 150.864 190.841 153.803 191.531 157.096C192.045 159.561 193.04 161.309 193.083 161.38C193.547 162.197 194.779 161.478 194.31 160.672C193.946 159.996 190.841 153.93 194.257 149.467Z" fill="black"/>
<path d="M47.1319 439.166C51.206 427.834 72.3755 374.609 110.95 374.609C142.305 374.609 143.702 427.83 143.643 439.166H150.544C150.737 408.151 142.127 367.712 110.95 367.712C63.3009 367.712 40.7726 436.246 39.8394 439.166H47.1319Z" fill="#FFD997"/>
<path d="M151.302 438.429C150.992 438.429 153.355 367.03 110.945 367.03C64.3911 367.03 41.6648 431.498 39.3524 438.447C38.5944 438.493 37.9913 439.107 37.9913 439.874V440.6C37.9913 441.399 38.6377 442.046 39.4366 442.046H47.5051C48.304 442.046 48.9504 441.399 48.9504 440.6V439.874C48.9504 439.285 48.5954 438.782 48.0901 438.556C52.6444 426.193 73.6637 375.301 110.954 375.301C136.715 375.301 142.967 413.019 142.96 438.486C142.3 438.618 141.792 439.176 141.792 439.874V440.6C141.792 441.399 142.439 442.046 143.238 442.046H151.306C152.105 442.046 152.752 441.399 152.752 440.6V439.874C152.752 439.075 152.101 438.429 151.302 438.429ZM110.954 373.926C72.2707 373.926 50.7804 427.176 46.6744 438.429H40.8159C48.0036 417.332 62.1446 392.316 80.2756 379.022C89.8805 371.971 100.202 368.397 110.95 368.397C141.44 368.397 149.841 407.939 149.856 438.429H144.337C144.296 411.847 137.696 373.926 110.954 373.926Z" fill="black"/>
<path d="M71.9769 363.156H169.43C172.803 363.156 175.541 365.894 175.541 369.267V373.73C175.541 377.103 172.803 379.839 169.432 379.839H71.9769C68.6038 379.839 65.868 377.101 65.868 373.73V369.267C65.868 365.894 68.6038 363.156 71.9769 363.156Z" fill="#875C00"/>
<path d="M169.43 362.473H71.9817C68.2331 362.473 65.1854 365.523 65.1854 369.269V373.73C65.1854 377.477 68.2353 380.524 71.9817 380.524H169.428C173.175 380.524 176.224 377.477 176.224 373.73V369.269C176.224 365.523 173.177 362.473 169.43 362.473ZM174.85 369.265V373.726C174.85 376.714 172.417 379.149 169.426 379.149H71.9771C68.9864 379.149 66.5511 376.716 66.5511 373.726V369.265C66.5511 366.276 68.9842 363.841 71.9771 363.841H169.426C172.417 363.841 174.85 366.274 174.85 369.265Z" fill="black"/>
<path d="M125.075 344.92L113.963 297.355C113.269 294.376 110.611 292.271 107.554 292.271H46.1828C43.1192 292.271 38.6741 295.43 36.7918 298.742C37.9367 297.736 39.4275 297.101 41.1072 297.101H102.478C105.535 297.101 108.194 299.206 108.888 302.185L119.999 349.75C120.532 352.021 119.792 354.216 118.338 355.752C122.073 353.895 125.872 348.321 125.075 344.92Z" fill="white"/>
<path d="M119.997 349.75C120.962 353.879 117.828 357.832 113.588 357.832H52.2165C49.1598 357.832 46.5014 355.727 45.8072 352.748L34.6956 305.183C33.7305 301.054 36.8646 297.101 41.1049 297.101H102.476C105.533 297.101 108.191 299.206 108.885 302.185L119.997 349.75Z" fill="#875C00"/>
<path d="M125.749 344.768L114.635 297.203C113.859 293.896 110.948 291.588 107.554 291.588H46.1828C41.1391 291.588 32.6289 299.372 34.0219 305.34L45.1335 352.904C45.9119 356.212 48.823 358.519 52.2143 358.519H113.588C116.665 358.519 121.106 355.064 123.02 352.654C124.727 350.501 126.34 347.299 125.749 344.768ZM52.2097 357.145C49.458 357.145 47.0977 355.272 46.4696 352.59L35.3556 305.026C34.4839 301.297 37.3312 297.786 41.1004 297.786H102.478C105.228 297.786 107.588 299.659 108.219 302.34L119.332 349.905C120.204 353.633 117.357 357.145 113.588 357.145H52.2097ZM120.516 353.326C120.878 352.126 120.962 350.851 120.669 349.593L109.555 302.028C108.778 298.721 105.867 296.413 102.474 296.413C39.2477 296.413 40.7908 296.27 39.2477 296.673C41.3644 294.524 44.2049 292.96 46.1805 292.96L107.552 292.956C110.303 292.956 112.664 294.829 113.292 297.51L124.403 345.077C125.009 347.654 122.63 351.341 120.516 353.326Z" fill="black"/>
<path d="M93.8977 382.677C94.5373 382.677 95.0243 382.083 94.8673 381.45L82.0805 326.728C81.8279 325.646 80.8674 324.884 79.7589 324.884H62.9868C62.1924 324.884 61.6234 325.633 61.8055 326.373L74.3283 379.976C74.7016 381.562 76.1127 382.68 77.7401 382.68L93.8977 382.677Z" fill="white"/>
<path d="M84.525 324.795C84.1949 323.4 82.9659 322.424 81.532 322.424H64.7598C64.1043 322.424 63.417 322.927 63.1507 323.141C62.0172 324.088 60.8223 325.125 61.1341 326.521L73.6592 380.124C74.1053 382.031 75.785 383.363 77.7378 383.363H93.8954C95.5092 383.363 97.8262 381.733 97.4825 380.242L84.525 324.795ZM93.8932 381.99H77.7355C76.42 381.99 75.2956 381.096 74.9975 379.816L62.4724 326.209C62.3927 325.874 62.6613 325.567 62.9868 325.567L79.7521 325.562C80.5442 325.562 81.2247 326.104 81.4068 326.878C95.0016 384.815 94.5077 381.99 93.8932 381.99Z" fill="black"/>
<path d="M89.4114 439.166C93.4855 427.834 114.657 374.609 153.229 374.609C184.584 374.609 185.982 427.83 185.922 439.166H192.823C193.019 408.151 184.407 367.712 153.229 367.712C105.58 367.712 83.0521 436.246 82.119 439.166H89.4114Z" fill="#FFD997"/>
<path d="M135.92 379.6C135.783 379.363 135.89 379.407 132.95 379.518C132.722 379.527 132.299 379.848 128.466 381.876C128.268 381.981 128.227 382.245 128.375 382.407C129.34 383.456 129.529 383.809 129.854 383.638C134.022 381.542 135.824 381.114 136.214 381.143C136.521 381.107 136.646 380.845 136.521 380.629L135.92 379.6Z" fill="black"/>
<path d="M85.3896 382.404C75.6891 382.149 77.5783 382.42 75.5685 381.646C75.2385 381.519 75.1588 381.778 74.1733 382.976C74.0686 383.103 74.0709 383.287 74.1778 383.413C74.2256 383.465 75.3113 384.705 77.4531 384.705C83.8101 384.705 83.9125 384.824 84.1264 384.596C85.7811 382.823 85.813 382.88 85.6969 382.611C85.6468 382.486 85.5262 382.409 85.3896 382.404Z" fill="black"/>
<path d="M193.506 438.429C193.5 407.154 184.705 367.03 153.225 367.03C106.7 367.03 83.9742 431.41 81.6367 438.429C80.8378 438.429 80.1732 439.075 80.1732 439.874V440.6C80.1732 441.399 80.8196 442.046 81.6185 442.046H89.687C90.4859 442.046 91.1323 441.399 91.1323 440.6V439.874C91.1323 439.319 90.8068 438.85 90.3471 438.609C94.8582 426.341 115.887 375.301 153.23 375.301C178.983 375.301 185.249 413.019 185.235 438.509C184.632 438.682 184.184 439.216 184.184 439.874V440.6C184.184 441.399 184.83 442.046 185.629 442.046H193.698C194.496 442.046 195.143 441.399 195.143 440.6V439.874C195.143 439.61 195.013 438.429 193.506 438.429ZM153.234 373.926C114.551 373.926 93.0601 427.176 88.9541 438.429H83.0956C90.2993 417.285 104.461 392.289 122.555 379.022C132.16 371.971 142.482 368.397 153.23 368.397C183.742 368.397 192.12 407.987 192.136 438.429H186.617C186.576 411.877 179.968 373.926 153.234 373.926Z" fill="black"/>
<path d="M169.216 439.735C173.29 428.403 194.462 375.178 233.034 375.178C264.389 375.178 265.787 428.398 265.727 439.735H272.628C272.824 408.72 264.212 368.281 233.034 368.281C185.385 368.281 162.857 436.815 161.924 439.735H169.216Z" fill="#FFD997"/>
<path d="M273.386 438.998C273.077 438.998 275.439 367.598 233.03 367.598C186.476 367.598 163.752 432.065 161.437 439.014C160.679 439.059 160.076 439.674 160.076 440.441V441.167C160.076 441.966 160.722 442.612 161.521 442.612H169.59C170.389 442.612 171.035 441.966 171.035 441.167V440.441C171.035 439.851 170.68 439.348 170.175 439.123C174.729 426.76 195.748 375.867 233.039 375.867C258.799 375.867 265.051 413.586 265.045 439.052C264.385 439.184 263.877 439.742 263.877 440.441V441.167C263.877 441.966 264.523 442.612 265.322 442.612H273.391C274.19 442.612 274.836 441.966 274.836 441.167V440.441C274.836 439.642 274.185 438.998 273.386 438.998ZM233.039 374.495C194.355 374.495 172.865 427.745 168.759 438.998H162.9C170.088 417.901 184.229 392.885 202.36 379.591C211.965 372.54 222.287 368.966 233.034 368.966C263.524 368.966 271.925 408.508 271.941 438.998H266.422C266.381 412.416 259.78 374.495 233.039 374.495Z" fill="black"/>
<path d="M194.062 363.725H291.515C294.888 363.725 297.626 366.463 297.626 369.836V374.299C297.626 377.672 294.888 380.408 291.517 380.408H194.064C190.691 380.408 187.955 377.67 187.955 374.299V369.836C187.955 366.463 190.691 363.725 194.062 363.725Z" fill="#875C00"/>
<path d="M291.515 363.042H194.069C190.322 363.042 187.272 366.092 187.272 369.838V374.299C187.272 378.045 190.322 381.093 194.069 381.093H291.515C295.264 381.093 298.311 378.045 298.311 374.299V369.838C298.311 366.092 295.261 363.042 291.515 363.042ZM296.934 369.833V374.294C296.934 377.283 294.501 379.718 291.51 379.718H194.064C191.073 379.718 188.638 377.285 188.638 374.294V369.833C188.638 366.845 191.071 364.41 194.064 364.41H291.51C294.499 364.41 296.934 366.843 296.934 369.833Z" fill="black"/>
<path d="M247.162 345.489L236.05 297.924C235.356 294.945 232.698 292.84 229.641 292.84H168.27C165.206 292.84 160.761 295.999 158.879 299.31C160.024 298.304 161.514 297.669 163.192 297.669H224.563C227.62 297.669 230.278 299.775 230.972 302.754L242.084 350.319C242.617 352.59 241.877 354.784 240.422 356.321C244.157 354.463 247.956 348.892 247.162 345.489Z" fill="white"/>
<path d="M242.082 350.319C243.047 354.447 239.913 358.401 235.672 358.401H174.301C171.244 358.401 168.586 356.295 167.892 353.316L156.78 305.751C155.815 301.623 158.949 297.669 163.189 297.669H224.56C227.617 297.669 230.276 299.775 230.97 302.754L242.082 350.319Z" fill="#875C00"/>
<path d="M247.836 345.336L236.722 297.772C235.945 294.465 233.034 292.157 229.641 292.157H168.27C163.226 292.157 154.716 299.941 156.109 305.909L167.22 353.473C167.999 356.78 170.91 359.088 174.301 359.088H235.675C238.752 359.088 243.195 355.633 245.107 353.223C246.814 351.07 248.427 347.867 247.836 345.336ZM174.297 357.714C171.545 357.714 169.185 355.84 168.559 353.159L157.445 305.594C156.573 301.866 159.42 298.354 163.19 298.354H224.568C227.317 298.354 229.677 300.228 230.305 302.909L241.419 350.473C242.291 354.202 239.444 357.714 235.675 357.714H174.297ZM242.603 353.894C242.965 352.695 243.049 351.42 242.755 350.162L231.641 302.597C230.865 299.29 227.954 296.982 224.561 296.982C161.335 296.982 162.878 296.839 161.335 297.241C163.451 295.093 166.292 293.529 168.267 293.529L229.639 293.525C232.39 293.525 234.751 295.398 235.379 298.079L246.49 345.644C247.096 348.22 244.717 351.91 242.603 353.894Z" fill="black"/>
<path d="M215.982 383.246C216.622 383.246 217.109 382.652 216.952 382.019L204.165 327.296C203.912 326.215 202.952 325.453 201.844 325.453H185.071C184.277 325.453 183.708 326.199 183.89 326.941L196.413 380.544C196.786 382.131 198.197 383.248 199.825 383.248L215.982 383.246Z" fill="white"/>
<path d="M206.61 325.367C206.277 323.971 205.05 322.995 203.617 322.995H186.844C186.189 322.995 185.502 323.498 185.235 323.712C184.102 324.659 182.907 325.697 183.219 327.092L195.744 380.695C196.19 382.602 197.87 383.934 199.822 383.934H215.98C217.594 383.934 219.911 382.304 219.567 380.813L206.61 325.367ZM215.978 382.561H199.82C198.505 382.561 197.38 381.667 197.082 380.388L184.557 326.78C184.477 326.445 184.746 326.138 185.074 326.138L201.839 326.134C202.631 326.134 203.312 326.675 203.494 327.449C217.088 385.386 216.595 382.561 215.978 382.561Z" fill="black"/>
<path d="M211.496 439.735C215.57 428.403 236.74 375.178 275.314 375.178C306.669 375.178 308.066 428.398 308.007 439.735H314.908C315.102 408.72 306.491 368.281 275.314 368.281C227.665 368.281 205.137 436.815 204.204 439.735H211.496Z" fill="#FFD997"/>
<path d="M258.005 380.169C257.868 379.932 257.975 379.976 255.035 380.087C254.807 380.096 254.384 380.417 250.551 382.445C250.353 382.55 250.312 382.814 250.46 382.975C251.425 384.025 251.614 384.377 251.939 384.207C256.107 382.111 257.909 381.683 258.298 381.712C258.606 381.676 258.731 381.414 258.606 381.2L258.005 380.169Z" fill="black"/>
<path d="M207.474 382.973C197.772 382.718 199.663 382.989 197.653 382.215C197.323 382.088 197.241 382.347 196.258 383.544C196.153 383.672 196.156 383.856 196.263 383.981C196.308 384.034 197.396 385.274 199.54 385.274C205.897 385.274 206 385.393 206.214 385.165C207.868 383.392 207.9 383.449 207.786 383.18C207.734 383.055 207.611 382.978 207.474 382.973Z" fill="black"/>
<path d="M315.591 438.998C315.584 407.723 306.79 367.598 275.31 367.598C228.785 367.598 206.059 431.978 203.721 438.998C202.922 438.998 202.258 439.644 202.258 440.443V441.169C202.258 441.968 202.904 442.614 203.703 442.614H211.772C212.571 442.614 213.217 441.968 213.217 441.169V440.443C213.217 439.888 212.891 439.419 212.432 439.178C216.945 426.91 237.971 375.87 275.314 375.87C301.068 375.87 307.331 413.588 307.32 439.077C306.717 439.25 306.268 439.785 306.268 440.443V441.169C306.268 441.968 306.915 442.614 307.714 442.614H315.782C316.581 442.614 317.227 441.968 317.227 441.169V440.443C317.227 440.179 317.098 438.998 315.591 438.998ZM275.319 374.495C236.635 374.495 215.145 427.745 211.039 438.998H205.18C212.384 417.853 226.545 392.858 244.64 379.591C254.245 372.54 264.567 368.966 275.314 368.966C305.827 368.966 314.205 408.556 314.221 438.998H308.701C308.66 412.446 302.053 374.495 275.319 374.495Z" fill="black"/>
<path d="M291.322 439.735C295.396 428.403 316.565 375.178 355.139 375.178C386.494 375.178 387.892 428.398 387.833 439.735H394.733C394.927 408.72 386.317 368.281 355.139 368.281C307.491 368.281 284.962 436.815 284.029 439.735H291.322Z" fill="#FFD997"/>
<path d="M395.491 438.998C395.182 438.998 397.544 367.598 355.135 367.598C308.581 367.598 285.857 432.065 283.542 439.014C282.786 439.059 282.181 439.674 282.181 440.441V441.167C282.181 441.966 282.827 442.612 283.626 442.612H291.695C292.494 442.612 293.14 441.966 293.14 441.167V440.441C293.14 439.851 292.785 439.348 292.28 439.123C296.834 426.76 317.853 375.867 355.144 375.867C380.904 375.867 387.157 413.586 387.15 439.052C386.49 439.184 385.982 439.742 385.982 440.441V441.167C385.982 441.966 386.628 442.612 387.427 442.612H395.496C396.295 442.612 396.941 441.966 396.941 441.167V440.441C396.941 439.642 396.29 438.998 395.491 438.998ZM355.144 374.495C316.46 374.495 294.97 427.745 290.864 438.998H285.006C292.193 417.901 306.334 392.885 324.465 379.591C334.07 372.54 344.392 368.966 355.139 368.966C385.629 368.966 394.03 408.508 394.046 438.998H388.527C388.486 412.416 381.885 374.495 355.144 374.495Z" fill="black"/>
<path d="M316.167 363.725H413.62C416.993 363.725 419.731 366.463 419.731 369.836V374.299C419.731 377.672 416.993 380.408 413.622 380.408H316.169C312.796 380.408 310.06 377.67 310.06 374.299V369.836C310.06 366.463 312.796 363.725 316.167 363.725Z" fill="#875C00"/>
<path d="M413.62 363.042H316.174C312.427 363.042 309.377 366.092 309.377 369.838V374.299C309.377 378.045 312.427 381.093 316.174 381.093H413.62C417.369 381.093 420.416 378.045 420.416 374.299V369.838C420.416 366.092 417.366 363.042 413.62 363.042ZM419.039 369.833V374.294C419.039 377.283 416.606 379.718 413.616 379.718H316.167C313.176 379.718 310.741 377.285 310.741 374.294V369.833C310.741 366.845 313.174 364.41 316.167 364.41H413.616C416.604 364.41 419.039 366.843 419.039 369.833Z" fill="black"/>
<path d="M369.265 345.489L358.153 297.924C357.459 294.945 354.8 292.84 351.744 292.84H290.372C287.309 292.84 282.864 295.999 280.981 299.31C282.126 298.304 283.617 297.669 285.297 297.669H346.668C349.725 297.669 352.383 299.775 353.077 302.754L364.189 350.319C364.722 352.59 363.982 354.784 362.527 356.321C366.262 354.463 370.059 348.892 369.265 345.489Z" fill="white"/>
<path d="M364.187 350.319C365.152 354.447 362.018 358.401 357.777 358.401H296.406C293.349 358.401 290.691 356.295 289.997 353.316L278.885 305.751C277.92 301.623 281.054 297.669 285.295 297.669H346.666C349.722 297.669 352.381 299.775 353.075 302.754L364.187 350.319Z" fill="#875C00"/>
<path d="M369.938 345.336L358.824 297.772C358.048 294.465 355.137 292.157 351.744 292.157H290.372C285.329 292.157 276.819 299.941 278.212 305.909L289.323 353.473C290.102 356.78 293.013 359.088 296.404 359.088H357.777C360.855 359.088 365.297 355.633 367.209 353.223C368.916 351.07 370.53 347.867 369.938 345.336ZM296.399 357.714C293.648 357.714 291.287 355.84 290.661 353.159L279.548 305.594C278.676 301.866 281.523 298.354 285.292 298.354H346.67C349.42 298.354 351.78 300.228 352.408 302.909L363.522 350.473C364.394 354.202 361.547 357.714 357.777 357.714H296.399ZM364.706 353.894C365.068 352.695 365.152 351.42 364.858 350.162L353.744 302.597C352.968 299.29 350.057 296.982 346.664 296.982C283.437 296.982 284.98 296.839 283.437 297.241C285.554 295.093 288.395 293.529 290.37 293.529L351.741 293.525C354.493 293.525 356.853 295.398 357.482 298.079L368.593 345.644C369.199 348.22 366.82 351.91 364.706 353.894Z" fill="black"/>
<path d="M338.087 383.246C338.727 383.246 339.214 382.652 339.057 382.019L326.27 327.296C326.018 326.215 325.057 325.453 323.949 325.453H307.176C306.382 325.453 305.813 326.199 305.995 326.941L318.518 380.544C318.891 382.131 320.302 383.248 321.93 383.248L338.087 383.246Z" fill="white"/>
<path d="M328.715 325.367C328.385 323.971 327.156 322.995 325.722 322.995H308.949C308.294 322.995 307.607 323.498 307.34 323.712C306.207 324.659 305.012 325.697 305.324 327.092L317.849 380.695C318.295 382.602 319.975 383.934 321.927 383.934H338.085C339.699 383.934 342.016 382.304 341.672 380.813L328.715 325.367ZM338.083 382.561H321.925C320.61 382.561 319.485 381.667 319.187 380.388L306.662 326.78C306.585 326.445 306.853 326.138 307.179 326.138L323.944 326.134C324.736 326.134 325.417 326.675 325.599 327.449C339.194 385.386 338.7 382.561 338.083 382.561Z" fill="black"/>
<path d="M333.599 439.735C337.673 428.403 358.845 375.178 397.417 375.178C428.772 375.178 430.169 428.398 430.11 439.735H437.011C437.204 408.72 428.594 368.281 397.417 368.281C349.768 368.281 327.24 436.815 326.307 439.735H333.599Z" fill="#FFD997"/>
<path d="M380.11 380.169C379.973 379.932 380.08 379.976 377.14 380.087C376.912 380.096 376.489 380.417 372.656 382.445C372.458 382.55 372.417 382.814 372.565 382.975C373.53 384.025 373.719 384.377 374.044 384.207C378.212 382.111 380.014 381.683 380.404 381.712C380.711 381.676 380.836 381.414 380.711 381.2L380.11 380.169Z" fill="black"/>
<path d="M329.58 382.973C319.879 382.718 321.768 382.989 319.758 382.215C319.428 382.088 319.349 382.347 318.363 383.544C318.258 383.672 318.261 383.856 318.368 383.981C318.416 384.034 319.501 385.274 321.645 385.274C328.002 385.274 328.105 385.393 328.319 385.165C329.973 383.392 330.005 383.449 329.889 383.18C329.839 383.055 329.716 382.978 329.58 382.973Z" fill="black"/>
<path d="M437.696 438.998C437.689 407.723 428.895 367.598 397.415 367.598C350.89 367.598 328.164 431.978 325.826 438.998C325.027 438.998 324.363 439.644 324.363 440.443V441.169C324.363 441.968 325.009 442.614 325.808 442.614H333.877C334.676 442.614 335.322 441.968 335.322 441.169V440.443C335.322 439.888 334.996 439.419 334.537 439.178C339.05 426.91 360.076 375.87 397.419 375.87C423.173 375.87 429.439 413.588 429.425 439.077C428.822 439.25 428.373 439.785 428.373 440.443V441.169C428.373 441.968 429.02 442.614 429.819 442.614H437.887C438.686 442.614 439.333 441.968 439.333 441.169V440.443C439.333 440.179 439.203 438.998 437.696 438.998ZM397.424 374.495C358.74 374.495 337.25 427.745 333.144 438.998H327.285C334.489 417.853 348.65 392.858 366.745 379.591C376.35 372.54 386.672 368.966 397.419 368.966C427.932 368.966 436.31 408.556 436.326 438.998H430.806C430.765 412.446 424.158 374.495 397.424 374.495Z" fill="black"/>
</svg>
