<svg width="19" height="17" viewBox="0 0 19 17" fill="none" xmlns="http://www.w3.org/2000/svg">
<g clip-path="url(#clip0_39_3599)">
<path d="M10.5556 1.06277C10.5556 0.734057 10.4071 0.425268 10.1498 0.226049C9.89254 0.0268304 9.55938 -0.0462165 9.24271 0.033471L3.30851 1.52761C2.6059 1.70359 2.11111 2.34109 2.11111 3.07156V14.8753H1.05556C0.471701 14.8753 0 15.3501 0 15.9378C0 16.5255 0.471701 17.0003 1.05556 17.0003H3.16667H9.5H10.5556V15.9378V1.06277ZM8.44444 8.50027C8.44444 9.08796 8.09149 9.56277 7.65278 9.56277C7.21406 9.56277 6.86111 9.08796 6.86111 8.50027C6.86111 7.91257 7.21406 7.43777 7.65278 7.43777C8.09149 7.43777 8.44444 7.91257 8.44444 8.50027ZM11.6111 4.25027H14.7778V15.9378C14.7778 16.5255 15.2495 17.0003 15.8333 17.0003H17.9444C18.5283 17.0003 19 16.5255 19 15.9378C19 15.3501 18.5283 14.8753 17.9444 14.8753H16.8889V4.25027C16.8889 3.0782 15.9422 2.12527 14.7778 2.12527H11.6111V4.25027Z" fill="white"/>
</g>
<defs>
<clipPath id="clip0_39_3599">
<rect width="19" height="17" fill="white"/>
</clipPath>
</defs>
</svg>
