<svg width="573" height="571" viewBox="0 0 573 571" fill="none" xmlns="http://www.w3.org/2000/svg">
<path d="M509.577 413.404L531.47 413.582C529.562 381.251 489.204 255.447 461.171 227.299L449.876 223.816L464.301 247.472C485.662 289.67 503.824 358.459 509.577 413.404Z" fill="#FFE5B8"/>
<path d="M428.765 229.865L442.224 267.861L450.817 269.721L446.24 278.871C446.24 278.871 451.691 293.492 452.012 293.684C467.791 284.392 471.459 242.336 449.716 223.293L471.242 230.984L478.515 227.671L483.908 235.51L503.435 242.489C499.475 211.08 467.214 202.157 452.023 199.687L473.213 195.979L498.696 196.007C488.902 181.53 478.831 175.01 468.549 174.22C468.269 174.595 463.802 180.403 463.802 180.403C463.802 180.403 459.139 175.177 459.054 175.035C450.908 176.994 442.646 182.037 434.316 189.104C422.307 163.546 399.867 173.64 399.867 173.64L418.49 196.653C377.968 187.812 374.231 218.213 374.231 218.213C374.231 218.213 415.149 215.189 416.291 215.041C382.191 238.84 386.817 262.211 397.404 285.516L410.006 262.961L407.379 255.833L415.256 253.59L428.765 229.865Z" fill="black"/>
<path d="M546.535 412.668H531.967C527.824 365.499 490.615 259.948 463.722 229.14C471.599 231.956 471.154 231.89 471.566 231.704L478.227 228.67L483.243 235.956C483.441 236.265 482.192 235.627 503.157 243.236C503.712 243.439 504.294 242.985 504.22 242.388C500.522 213.058 472.34 203.036 456.498 199.711L473.271 196.778C500.338 196.808 499.05 197.036 499.393 196.384C499.536 196.122 499.519 195.81 499.352 195.564C489.863 181.53 479.808 174.288 468.604 173.424C467.997 173.374 468.148 173.432 463.747 179.15C462.077 177.276 459.905 174.846 459.697 174.567C459.502 174.31 459.178 174.173 458.857 174.255C451.309 176.067 443.363 180.507 434.577 187.823C422.266 163.035 399.754 172.805 399.526 172.906C399.046 173.123 398.903 173.719 399.23 174.132L416.461 195.419C403.184 192.896 392.536 194.387 384.788 199.865C374.909 206.839 373.481 217.652 373.424 218.106C373.363 218.62 373.789 219.033 374.28 219.001C375.697 218.891 404.142 216.793 413.471 216.062C399.104 226.64 391.18 237.874 389.288 250.336C387.358 263.056 391.932 275.42 396.663 285.839C396.926 286.417 397.755 286.49 398.09 285.897C411.873 261.439 410.932 263.182 410.745 262.679L408.414 256.358L415.465 254.35C415.934 254.219 414.861 255.885 428.583 231.748L441.471 268.121C441.677 268.714 441.625 268.539 449.642 270.279C445.197 279.166 445.321 278.685 445.488 279.144C451.04 294.015 451.292 294.173 451.589 294.357C451.85 294.515 452.152 294.513 452.404 294.362C459.255 290.332 464.255 279.951 465.449 267.278C465.927 262.222 465.8 256.498 464.812 250.703C480.089 282.452 503.311 355.926 509.126 412.668H464.924C463.867 412.668 463.867 414.264 464.924 414.264H546.533C547.59 414.264 547.592 412.668 546.535 412.668ZM452.347 292.523C451.405 290.296 448.821 283.489 447.114 278.912C451.861 269.456 451.795 269.885 451.548 269.382C451.317 268.881 451.534 269.065 442.841 267.185L429.531 229.608C429.311 228.979 428.43 228.875 428.086 229.471C428.086 229.471 415.803 251.009 414.729 252.922C406.44 255.28 406.896 255.048 406.673 255.477C406.448 255.912 406.451 255.625 409.136 262.898L397.492 283.741C388.415 263.313 382.421 239.663 416.763 215.695C417.436 215.219 417.035 214.152 416.203 214.256C415.341 214.371 389.604 216.284 375.217 217.348C375.807 214.593 378.119 206.554 385.757 201.167C393.544 195.678 404.507 194.425 418.334 197.438C419.078 197.605 419.594 196.735 419.127 196.157L401.188 173.993C403.066 173.339 407.448 172.091 412.585 172.592C421.686 173.476 428.759 179.145 433.597 189.443C433.817 189.919 434.44 190.048 434.835 189.711C443.547 182.321 451.386 177.807 458.769 175.927C459.277 176.507 460.444 177.834 463.208 180.931C463.538 181.292 464.128 181.298 464.441 180.885C464.6 180.68 467.92 176.359 468.925 175.049C479.106 175.998 488.367 182.603 497.183 195.208L473.084 195.191L451.894 198.896C451.015 199.052 451.012 200.322 451.899 200.467C476.412 204.445 498.687 216.82 502.465 241.28L484.424 234.837L479.174 227.214C478.952 226.897 478.535 226.782 478.18 226.941L471.204 230.117L449.986 222.533C449.151 222.243 448.533 223.31 449.187 223.882C470.276 242.35 466.923 282.674 452.347 292.523ZM463.368 244.32C461.391 237.422 458.052 230.738 452.926 225.282L460.482 227.98C488.614 256.591 526.372 367.879 530.366 412.668H510.743C504.566 352.041 478.499 272.252 463.368 244.32Z" fill="black"/>
<path d="M490.129 306.412C489.391 306.412 489.056 305.487 489.61 305.011L494.141 301.145L486.332 296.398C486 296.192 485.857 295.782 486.005 295.418L489.701 286.304L482.549 282.244C482.252 282.074 482.096 281.738 482.162 281.401C482.205 281.169 483.254 275.645 483.79 273.295C484.023 272.271 485.591 272.619 485.349 273.653C484.907 275.541 484.122 279.648 483.836 281.144L491.099 285.267C491.447 285.467 491.595 285.889 491.442 286.258L487.741 295.391L495.912 300.354C496.362 300.625 496.447 301.271 496.021 301.64C490.514 306.412 490.58 306.412 490.129 306.412Z" fill="black"/>
<path d="M515.186 408.775L523.966 401.016L512.586 394.758C512.1 394.493 512.039 393.839 512.432 393.472L520.584 386.036L510.716 384.534C509.675 384.37 509.906 382.802 510.963 382.958C523.357 384.796 522.923 384.594 523.132 385.27C523.222 385.565 523.132 385.885 522.909 386.091L514.346 393.902C526.665 400.676 526.091 400.198 526.155 400.78C526.218 401.36 526.682 400.761 516.265 409.976C515.493 410.657 514.37 409.503 515.186 408.775Z" fill="black"/>
<path d="M518.335 376.717C518.025 376.717 518.914 377.122 507.553 371.759C507.042 371.518 506.927 370.837 507.358 370.443L515.62 363.026L504.343 355.261C503.885 354.949 503.888 354.265 504.338 353.95C507.677 351.608 511.595 348.894 513.668 347.63C511.548 346.549 506.485 344.292 501.892 342.295C501.406 342.084 501.244 341.46 501.606 341.036L509.508 332.081L497.166 328.13C496.689 327.98 496.461 327.419 496.722 326.962L503.599 315.383L493.424 314.365C492.359 314.256 492.551 312.672 493.583 312.784C505.851 314.111 505.351 313.804 505.637 314.36C505.947 314.964 506.106 314.294 498.611 326.913C512.146 331.247 511.523 330.885 511.688 331.479C511.85 332.062 512.155 331.496 503.536 341.266C516.128 346.719 516.095 347.044 516.026 347.75C515.993 348.098 515.699 348.404 515.359 348.478C514.771 348.7 510.354 351.69 506.194 354.599L517.363 362.284C517.77 362.563 517.841 363.171 517.443 363.532L509.324 370.818L518.676 375.201C519.442 375.562 519.194 376.717 518.335 376.717Z" fill="black"/>
<path d="M90.1219 261.948C64.184 319.985 53.2207 369.795 53.8961 413.21H72.1216C72.3165 365.381 79.9658 318.737 94.7922 273.243L90.1219 261.948Z" fill="#FFE5B8"/>
<path d="M125.019 229.808L122.301 243.882L117.295 248.914L120.033 255.472L117.194 269.5L108.715 272.707L114.805 281.013C114.805 281.013 111.513 296.321 111.222 296.567C92.7742 289.309 79.2849 249.592 102.617 226.662L81.8548 237.688L73.9255 235.576L69.6396 244.178L50.8101 254.181C49.9644 222.514 81.4842 208.566 96.5961 203.704L81.7121 203.966L75.6662 197.881L69.9361 205.219L48.4268 207.509C62.0122 175.035 92.4584 175.558 113.02 190.423C121.298 163.259 153.908 164.244 153.908 164.244L130.329 195.359C168.836 180.915 188.676 191.082 201.531 210.467L176.856 211.488L170.355 205.252L164.171 212.005C164.171 212.005 136.622 213.132 135.436 213.173C173.913 231.25 172.828 255.076 165.651 279.79L149.296 259.516L150.872 252.058L142.484 251.095L125.019 229.808Z" fill="black"/>
<path d="M202.201 210.024C188.909 189.979 168.795 180.83 132.605 193.673L154.548 164.717C154.946 164.198 154.584 163.467 153.936 163.442C153.598 163.432 145.531 163.226 136.312 166.386C124.418 170.463 116.236 178.313 112.589 189.131C100.605 180.819 86.3961 177.87 74.373 181.235C62.6437 184.526 53.4184 193.498 47.6883 207.195C47.5812 207.457 47.6142 207.753 47.7844 207.98C48.1798 208.502 46.5736 208.483 70.0212 206.01C70.4935 205.961 70.1502 206.245 75.7403 199.088C81.5418 204.932 81.2673 204.8 81.7285 204.765L91.6403 204.587C75.9463 210.491 49.2313 224.878 50.0138 254.197C50.0276 254.785 50.6618 255.16 51.1862 254.881C71.3391 244.15 70.1942 244.862 70.3589 244.531L74.3538 236.508L81.6544 238.457C82.1047 238.574 80.8472 239.127 98.9354 229.518C92.1427 237.866 88.8479 248.536 89.4794 260.011C55.1674 340.213 51.7655 390.074 52.7924 412.669H26.4646C25.4075 412.669 25.4075 414.264 26.4646 414.264H118.55C119.607 414.264 119.607 412.669 118.55 412.669H72.6295C71.7125 379.182 82.4781 305.128 93.8368 278.392C97.8069 287.503 104.108 294.485 110.928 297.312C112.12 297.807 112.276 296.548 115.585 281.161C115.689 280.657 115.868 281.095 109.973 273.059C117.872 270.071 117.853 270.244 117.971 269.636C120.95 254.564 120.903 255.475 120.766 255.146L118.234 249.078L122.863 244.427C123.124 244.153 122.896 244.963 125.475 231.627C143.285 253.324 141.915 251.825 142.39 251.877L149.902 252.736L148.508 259.341C148.39 259.882 147.258 258.274 165.025 280.28C165.426 280.775 166.231 280.635 166.42 280.006C169.63 268.955 172.373 256.008 168.424 243.745C164.572 231.778 154.814 221.975 138.643 213.838C145.96 213.542 163.296 212.836 164.202 212.795C164.668 212.771 164.257 213.085 170.39 206.385L176.304 212.051C176.67 212.401 174.816 212.311 201.567 211.255C202.196 211.23 202.542 210.535 202.201 210.024ZM71.0288 412.669H54.3986C53.38 390.504 56.6582 341.775 89.7815 263.401C90.3059 267.729 91.3575 272.088 92.9966 276.337C80.7044 303.366 70.142 379.841 71.0288 412.669ZM177.177 210.697C170.442 204.242 170.838 204.48 170.338 204.48C169.855 204.505 170.223 204.251 163.82 211.249C160.684 211.375 136.528 212.366 135.425 212.398C134.579 212.44 134.354 213.559 135.103 213.92C173.885 232.144 171.417 256.476 165.314 278.115L150.163 259.333L151.66 252.246C151.764 251.792 151.437 251.338 150.968 251.289L142.907 250.367L125.642 229.329C125.208 228.812 124.363 229.02 124.236 229.682L121.568 243.505L116.735 248.361C116.507 248.588 116.439 248.93 116.565 249.226L119.204 255.562L116.496 268.92L108.43 271.973C107.911 272.173 107.763 272.78 108.065 273.185L113.943 281.202C112.908 286.006 111.326 293.175 110.72 295.497C92.5875 287.35 81.0696 248.952 103.172 227.231C103.683 226.733 103.331 225.865 102.612 225.865C102.337 225.865 103.507 225.307 81.7697 236.853L74.1424 234.82C73.7717 234.725 73.3873 234.894 73.2171 235.236L69.0465 243.611L51.5981 252.878C51.642 227.794 72.9947 212.144 96.8514 204.48C97.7026 204.209 97.5214 202.926 96.6043 202.926L82.047 203.183L76.2428 197.342C75.8721 196.986 75.3257 197.052 75.0429 197.416L69.5242 204.486L49.7118 206.593C55.2717 194.067 63.9314 185.853 74.8151 182.8C86.6707 179.481 100.78 182.578 112.556 191.09C112.996 191.399 113.627 191.211 113.789 190.674C117.142 179.686 124.879 172.036 136.789 167.941C143.382 165.67 149.496 165.18 152.294 165.081L129.697 194.896C129.222 195.533 129.873 196.401 130.617 196.119C158.631 185.613 183.072 185.199 200.073 209.747L177.177 210.697Z" fill="black"/>
<path d="M77.2395 334.15C76.8798 334.15 77.4152 334.382 68.7774 328.502C68.3354 328.201 68.3189 327.531 68.75 327.211L77.816 320.322L72.6405 311.925C72.4236 311.572 72.5142 311.104 72.8519 310.86L82.1596 304.176C81.0751 302.948 78.7331 300.343 77.5881 299.309C76.8029 298.6 77.8737 297.418 78.6617 298.124C80.2487 299.55 83.7933 303.613 83.947 303.788C84.271 304.157 84.1667 304.71 83.8097 304.956L74.3895 311.72L79.554 320.1C79.7709 320.447 79.6858 320.902 79.3591 321.153L70.595 327.816L77.6897 332.694C78.3459 333.143 78.0055 334.15 77.2395 334.15Z" fill="black"/>
<path d="M58.4484 405.588C57.6851 405.588 57.3474 404.567 58.0201 404.124L66.8692 398.304L57.4709 392.405C56.9932 392.107 56.9795 391.434 57.4023 391.108L69.6505 381.505C64.9775 379.302 60.0711 377.092 59.3956 376.963C59.0469 376.947 58.7532 376.69 58.6653 376.348C58.4841 375.661 58.4017 375.341 70.3836 367.956C60.1342 359.726 60.4856 360.21 60.557 359.592C60.6312 358.957 59.8569 359.526 73.1787 352.993C63.5086 341.641 63.871 342.314 64.0604 341.715C64.2499 341.116 63.7804 341.367 76.0863 338.229C77.1104 337.966 77.5168 339.499 76.4871 339.772L66.2542 342.407L75.0594 352.741C75.3999 353.14 75.2598 353.742 74.8013 353.969L62.8277 359.838L72.2671 367.417C72.7064 367.781 72.6433 368.438 72.1875 368.714C67.7972 371.384 63.0171 374.446 61.0128 375.858C63.5031 376.848 68.3601 379.116 71.5011 380.605C72.053 380.867 72.1051 381.603 71.6494 381.954L59.2803 391.656L68.7692 397.612C69.2689 397.924 69.2552 398.641 68.7802 398.95C57.924 406.031 58.7916 405.588 58.4484 405.588Z" fill="black"/>
<path d="M280.114 108.828L476.961 108.823C477.727 96.8606 469.076 88.6744 454.227 95.7279C459.153 79.4895 445.856 72.9503 432.625 80.6249C445.131 39.4584 392.69 27.8304 377.671 68.1623C362.892 43.2369 335.869 57.0266 339.392 83.6483C325.373 70.0529 310.082 77.4757 309.072 94.9782C297.576 90.7866 285.199 94.9755 280.114 108.828Z" fill="white"/>
<path d="M476.953 109.625C272.838 109.622 278.771 110.202 279.364 108.549C284.139 95.2247 296.233 89.9743 308.352 93.8841C309.893 77.0738 324.557 69.8124 338.381 81.643C336.517 56.1787 362.266 43.1168 377.504 66.3841C393.351 27.4748 444.475 38.854 433.904 79.0356C446.919 72.6579 458.988 79.3557 455.433 94.3218C469.441 88.505 478.587 96.2289 477.755 108.88C477.727 109.302 477.376 109.625 476.953 109.625ZM281.294 108.029L476.198 108.024C476.547 96.5654 468.057 90.018 454.573 96.445C453.947 96.7432 453.264 96.155 453.464 95.4956C458.08 80.2668 445.958 73.8316 433.029 81.3092C432.389 81.6786 431.656 81.0684 431.862 80.3926C438.105 60.0693 428.152 48.7804 417.807 45.3111C400.037 39.352 384.266 52.7832 378.426 68.4416C378.193 69.0709 377.328 69.1475 376.988 68.5729C362.771 44.5204 336.706 57.6206 340.188 83.5446C340.287 84.2888 339.375 84.7429 338.84 84.2176C325.79 71.3883 310.98 77.6648 309.879 95.0223C309.843 95.5667 309.3 95.906 308.805 95.7227C297.812 91.6323 286.332 95.7446 281.294 108.029Z" fill="black"/>
<path d="M197.887 90.8687C201.565 68.2805 186.172 46.9979 163.504 43.3324C140.837 39.6669 119.48 55.0071 115.801 77.5953C112.123 100.184 127.517 121.466 150.184 125.132C172.852 128.797 194.209 113.457 197.887 90.8687Z" fill="white"/>
<path d="M156.846 126.465C133.481 126.465 114.467 107.517 114.467 84.231C114.467 60.9446 133.481 42.0002 156.846 42.0002C180.211 42.0002 199.228 60.9473 199.228 84.231C199.228 107.515 180.214 126.465 156.846 126.465ZM156.846 43.6008C134.359 43.6008 116.065 61.8311 116.065 84.2392C116.065 106.647 134.359 124.878 156.846 124.878C179.333 124.878 197.627 106.647 197.627 84.2392C197.627 61.8311 179.333 43.6008 156.846 43.6008Z" fill="black"/>
<path d="M472.618 467.075C468.225 454.916 459.7 438.07 450.664 420.42L381.738 441.342C373.849 487.174 371.505 498.394 372.85 527.861L433.506 527.766C459.329 521.787 486.511 505.516 472.618 467.075Z" fill="#FFE5B8"/>
<path d="M206.226 489.029L182.391 480.744L194.818 439.487L131.463 419.82C122.979 438.85 115.316 456.951 111.494 468.489C98.8228 506.747 128.006 522.802 154.438 528.206L207.286 528.121C207.324 526.945 208.011 504.829 206.226 489.029Z" fill="#FFE5B8"/>
<path d="M451.869 420.611C411.956 350.53 416.755 330.431 360.149 315.542C347.112 309.12 317.528 306.639 317.528 306.639C259.003 308.833 259.338 308.707 259.008 309.035C252.004 309.856 233.128 312.439 222.64 317.517C211.761 322.784 178.657 319.375 160.16 359.203C153.34 373.888 132.097 420.017 132.097 420.017L197.849 440.428C197.849 440.428 202.714 467.761 205.482 483.713C208.25 499.664 207.289 528.173 207.289 528.173L372.803 527.875C372.803 527.875 371.444 505.303 374.462 485.707C377.479 466.112 381.74 441.339 381.74 441.339C409.128 433.096 392.454 438.04 451.869 420.611Z" fill="#875C00"/>
<path d="M344.391 233.157C342.096 231.63 339.323 232.771 337.061 234.369L332.261 195.575C331.589 190.127 328.14 185.402 323.149 183.079C294.196 169.596 269.348 172.718 249.008 194.182C245.815 197.553 243.976 201.971 243.844 206.598L242.976 236.87C241.178 235.51 239.138 234.837 237.046 235.879C231.557 238.612 233.4 246.782 236.818 254.958C239.992 262.553 248.462 267.078 253.305 264.227C254.557 269.932 256.471 277.44 258.464 280.619C259.189 281.774 260.463 283.09 262.047 284.463L262.476 312.486L255.916 320.956C255.916 320.956 259.563 338.623 271.462 344.429C295.289 356.054 321.054 343.25 327.737 317.254C327.737 317.254 321.309 314.384 319.977 310.849C318.931 308.072 319.395 292.198 319.64 285.555C326.15 277.907 327.143 270.745 329.134 261.798C332.997 264.878 339.416 261.997 343.474 254.282C348.491 244.744 349.174 236.339 344.391 233.157Z" fill="#FFE5B8"/>
<path d="M288.661 260.739C288.09 260.2 287.002 260.022 285.341 260.211C283.148 260.46 281.355 258.301 281.275 256.145C281.201 254.181 283.027 251.513 284.012 249.781C284.54 248.856 285.921 249.647 285.407 250.561C284.641 251.921 282.824 254.657 282.876 256.082C282.922 257.332 283.949 258.761 285.166 258.627C287.348 258.386 288.806 258.69 289.754 259.576C292.886 262.512 295.451 261.16 296.7 260.088C298.01 258.963 298.781 257.502 301.579 257.097C302.521 256.96 303.399 256.317 303.814 255.458C305.192 252.585 301.521 252.044 300.357 248.153C300.055 247.143 301.587 246.689 301.889 247.696C302.922 251.146 307.221 252.052 305.255 256.145C304.61 257.488 303.29 258.454 301.81 258.668C299.599 258.985 299.144 260.088 297.743 261.292C294.814 263.806 291.393 263.316 288.661 260.739Z" fill="black"/>
<path d="M292.875 275.161C290.585 275.161 289.034 272.991 287.615 272.849C285.632 272.652 283.774 273.609 281.868 273.407C276.956 272.881 273.733 271.341 273.601 271.278C273.206 271.087 273.041 270.605 273.23 270.214C273.903 268.824 274.988 271.078 282.041 271.82C283.439 271.968 285.635 271.051 287.777 271.256C289.614 271.431 291.373 273.606 292.941 273.568C294.501 273.53 296.892 271.226 299.135 270.846C301.016 270.528 302.716 271.481 304.289 271.53C305.788 271.576 308.017 270.465 309.607 269.812C310.585 269.409 311.208 270.857 310.236 271.275C308.421 272.055 306.093 273.177 304.253 273.125C302.639 273.078 300.703 272.197 299.396 272.419C297.34 272.766 295.184 275.161 292.875 275.161Z" fill="black"/>
<path d="M283.708 280.537C282.664 280.357 282.939 278.781 283.982 278.967C289.682 279.979 295.467 279.785 301.178 278.477C302.216 278.239 302.565 279.798 301.538 280.031C295.286 281.451 289.482 281.533 283.708 280.537Z" fill="black"/>
<path d="M257.899 220.842C262.701 214.45 272.453 211.991 279.581 215.69C282.522 217.214 281.182 221.509 277.925 221.28C268.659 221.247 268.933 221.605 260.134 223.635L259.62 223.704C258.066 223.942 256.965 222.081 257.899 220.842Z" fill="black"/>
<path d="M324.744 219.181C319.516 213.126 309.632 211.318 302.765 215.485C299.932 217.206 301.56 221.395 304.794 220.957C314.039 220.303 313.786 220.678 322.704 222.12L323.217 222.153C324.782 222.289 325.754 220.352 324.744 219.181Z" fill="black"/>
<path d="M296.121 235.381C294.394 230.656 297.974 223.271 298.125 222.96C298.586 222.01 300.025 222.722 299.564 223.66C299.531 223.728 296.148 230.741 297.62 234.842C297.977 235.835 296.48 236.366 296.121 235.381Z" fill="black"/>
<path d="M283.065 240.774C283.002 241.554 282.557 242.26 281.876 242.654C275.13 246.572 268.458 246.15 262.709 242.317C262.075 241.896 261.704 241.184 261.726 240.426L261.778 238.429C271.075 231.107 280.819 235.515 282.25 236.421C283.211 237.031 283.183 239.321 283.065 240.774Z" fill="white"/>
<path d="M278.444 244.287C276.097 245.146 273.708 245.524 271.336 245.362C269.419 242.941 271.251 239.4 274.592 239.4C277.368 239.4 279.271 241.937 278.444 244.287Z" fill="black"/>
<path d="M281.684 337.89C276.937 326.065 273 307.659 272.961 307.47C272.744 306.444 274.304 306.102 274.526 307.139C274.565 307.323 278.458 325.602 283.17 337.296C283.565 338.273 282.077 338.869 281.684 337.89Z" fill="black"/>
<path d="M262.201 300.888C266.012 295.957 271.092 293.834 277.923 295.582C272.89 292.417 267.594 288.819 262.075 284.846L262.201 300.888Z" fill="black"/>
<path d="M261.089 237.888C268.014 232.301 275.888 231.723 283.183 236.219C284.078 236.771 283.255 238.134 282.343 237.579C275.649 233.499 268.464 234.019 262.097 239.133C261.276 239.792 260.271 238.55 261.089 237.888Z" fill="black"/>
<path d="M302.955 240.774C303.018 241.554 303.465 242.26 304.143 242.654C310.865 246.558 317.539 246.167 323.311 242.317C323.945 241.896 324.315 241.184 324.294 240.426L324.241 238.429C314.945 231.107 305.2 235.515 303.77 236.421C302.809 237.031 302.836 239.321 302.955 240.774Z" fill="white"/>
<path d="M307.575 244.287C309.923 245.146 312.312 245.524 314.684 245.362C316.598 242.946 314.777 239.4 311.428 239.4C308.635 239.4 306.757 241.948 307.575 244.287Z" fill="black"/>
<path d="M323.928 239.13C317.559 234.016 310.354 233.461 303.682 237.576C302.787 238.128 301.933 236.777 302.842 236.216C310.134 231.718 317.981 232.328 324.936 237.885C325.773 238.553 324.73 239.773 323.928 239.13Z" fill="black"/>
<path d="M474.446 468.218C466.229 443.405 439.843 399.59 426.56 370.159C403.189 318.398 375.085 319.714 360.453 314.518C347.903 310.042 320.944 306.406 320.227 306.529C319.942 300.518 320.337 290.056 320.57 285.705C326.073 279.062 327.904 271.97 329.79 263.549C330.677 264.129 331.874 264.318 332.918 264.225C334.444 264.099 339.762 263.045 344.177 254.648C353.216 237.461 346.006 229.283 339.027 232.325C341.303 209.889 338.348 193.895 337.854 191.438C341.665 185.388 342.189 179.664 335.29 178.554C336.539 172.258 333.733 169.122 326.696 170.263C325.57 163.749 321.971 162.263 316.812 165.497C314.582 159.7 310.763 158.46 305.75 163.259C302.249 158.643 298.103 158.419 293.644 162.996C289.861 157.899 285.319 158.589 280.704 163.207C275.237 159.188 270.721 159.109 268.711 165.484C262.536 160.652 253.108 165.092 256.315 173.585C247.921 171.738 245.371 175.202 248.984 182.972C242.479 182.592 240.783 186.225 243.053 192.36C238.163 192.54 238.221 199.657 240.104 204.554C239.374 212.601 241.214 230.158 241.774 235.195C240.096 234.404 238.358 234.339 236.689 235.168C231.673 237.674 231.472 244.243 236.085 255.264C239.083 262.435 247.117 269.297 252.767 265.516C255.875 279.289 257.536 281.505 261.108 284.696C261.279 289.664 261.534 300.671 261.314 307.81C259.052 308.031 234.498 310.559 221.813 316.702C211.196 321.865 177.655 318.54 158.957 358.768C146.976 384.55 119.426 442.959 111.057 468.232C99.8689 502.014 120.329 521.976 154.603 528.978C154.913 529.079 155.435 528.852 155.539 528.357C155.63 527.924 155.35 527.506 154.916 527.418C121.532 520.586 101.695 501.543 112.57 468.727C116.315 457.43 123.679 439.977 131.924 421.443L194.011 440.105L181.702 480.057C173.993 477.496 167.09 475.195 165.624 474.678C164.611 474.32 164.097 475.852 165.088 476.18L205.246 489.538C207.464 510.597 206.591 527.612 206.583 527.801C206.525 528.863 208.123 528.917 208.184 527.886C208.195 527.67 209.299 506.216 205.894 481.595C204.461 471.195 197.317 441.725 196.073 413.965C195.073 391.658 197.723 368.243 197.753 368.011C197.882 366.979 196.295 366.769 196.166 367.827C196.139 368.063 193.47 391.598 194.475 414.034C194.851 422.458 195.779 431.085 196.932 439.315L132.588 419.971C140.663 401.867 159.221 361.992 160.41 359.436C178.778 319.865 211.281 323.561 222.513 318.133C232.699 313.202 251.164 310.611 258.352 309.758C255.826 312.165 252.811 317.12 256.295 325.723C261.718 339.102 268.686 350.971 294.111 349.19C307.828 348.232 316.364 340.057 321.111 333.367C326.243 326.144 328.802 318.081 329.208 314.699C329.529 312.037 328.025 310.165 326.111 308.885C353.449 312.767 355.487 315.164 367.702 318.207C382.808 321.969 405.638 327.651 425.124 370.823C431.321 384.547 440.53 401.749 450.04 419.82L383.014 440.122C384.22 431.651 385.194 422.732 385.584 414.028C386.583 391.59 383.923 368.055 383.893 367.822C383.764 366.782 382.202 366.946 382.306 368.003C386.306 408.986 383.967 429.539 376.29 469.701C375.313 474.842 374.536 478.903 374.165 481.589C370.76 506.211 371.861 527.664 371.875 527.88C371.933 528.95 373.531 528.838 373.476 527.796C373.465 527.607 372.633 511.415 374.654 491.078C381.411 487.71 422.12 467.414 422.26 467.346C423.216 466.886 422.513 465.455 421.563 465.912C420.975 466.194 381.405 485.94 374.843 489.212C376.419 474.467 379.527 463.947 382.767 441.857L450.798 421.26C460.067 438.956 468.845 456.319 472.958 468.735C483.644 500.991 464.831 520.868 431.288 527.421C430.266 527.621 430.544 529.175 431.584 528.969C466.187 522.189 485.41 501.33 474.446 468.218ZM197.171 441.06C199.793 459.203 203.643 475.253 205.054 487.803L183.218 480.566L195.54 440.571L197.171 441.06ZM259.148 280.2C255.851 274.944 252.679 257.051 252.646 256.87C252.468 255.828 250.892 256.101 251.07 257.144C251.12 257.428 251.611 260.192 252.388 263.803C251.189 264.857 249.684 265.201 247.916 264.832C243.973 264 239.717 259.817 237.559 254.659C233.336 244.561 233.287 238.656 237.405 236.601C238.416 236.095 239.445 236.038 240.555 236.426C244.948 237.953 248.599 245.682 248.632 245.764C248.871 246.268 249.854 246.673 250.299 245.587C250.562 244.944 250.878 243.622 251.29 240.834C253.607 225.261 249.964 218.336 251.016 207.712C251.696 200.874 255.134 196.166 256.935 194.68C261.518 196.691 266.751 194.918 269.263 190.212C272.451 191.96 276.182 191.101 280.616 187.604C284.523 190.127 288.968 189.853 292.991 186.836C295.734 189.944 300.258 190.321 305.091 187.804C308.913 191.134 314.008 191.55 318.624 188.89C319.846 189.755 323.692 192.841 325.628 198.767C327.756 205.271 326.723 213.843 328.283 223.187C329.263 229.036 331.696 235.08 331.924 238.405C331.962 239.091 332.898 239.504 333.379 238.894C333.442 238.815 339.812 231.094 343.936 233.833C348.159 236.64 347.694 244.525 342.758 253.918C339.554 260.014 335.509 262.424 332.788 262.64C331.583 262.742 330.6 262.405 330.183 261.754C331.303 256.564 332.108 252.046 332.171 251.704C332.349 250.659 330.77 250.397 330.595 251.431C330.573 251.584 327.846 266.887 325.389 273.782C322.808 281.029 319.231 285.856 312.191 291.596C308.454 294.641 305.187 296.715 302.485 298.343C299.772 299.976 297.754 301.076 294.613 301.413C289.575 301.946 285.152 300.524 281.091 297.057C277.89 294.335 262.413 285.41 259.148 280.2ZM326.888 317.733C324.379 326.426 315.263 346.122 293.993 347.608C269.645 349.31 262.964 337.947 257.778 325.132C257.166 323.621 256.77 322.24 256.545 320.981C257.734 320.196 261.048 317.788 262.223 314.663C263.434 311.429 262.934 291.856 262.759 286.099C268.612 290.86 277.821 296.357 280.053 298.255C283.826 301.478 288.051 303.101 292.639 303.101C297.156 303.101 299.728 301.862 303.317 299.703C310.285 295.503 315.466 291.243 318.874 287.626C318.627 293.062 318.064 308.029 319.228 311.128C320.441 314.349 325.271 316.937 326.888 317.733Z" fill="black"/>
<path d="M249.154 223.507C248.981 223.507 242.633 221.17 242.468 221.11C241.543 220.765 242.068 219.381 242.982 219.72C243.029 219.737 247.586 221.43 249.398 222.07C250.181 222.347 249.983 223.507 249.154 223.507Z" fill="white"/>
<path d="M330.663 216.954C329.848 216.954 329.623 215.794 330.416 215.515C332.228 214.875 336.786 213.181 336.833 213.165C337.75 212.823 338.272 214.212 337.346 214.554C330.699 217.003 330.91 216.954 330.663 216.954Z" fill="white"/>
<path d="M331.229 222.618C330.414 222.618 330.188 221.458 330.982 221.179C332.325 220.703 335.142 219.666 336.553 219.14C337.47 218.798 337.991 220.188 337.066 220.53C331.671 222.517 331.471 222.618 331.229 222.618Z" fill="white"/>
<path d="M332.651 227.969C331.822 227.969 331.622 226.817 332.399 226.536C333.9 225.988 336.083 225.187 337.22 224.765C338.137 224.423 338.659 225.813 337.733 226.155C333.53 227.704 332.926 227.969 332.651 227.969Z" fill="white"/>
<path d="M249.81 229.649C249.483 229.649 249.206 229.507 243.125 227.252C242.199 226.908 242.724 225.523 243.638 225.862C243.685 225.879 248.242 227.573 250.055 228.213C250.837 228.489 250.639 229.649 249.81 229.649Z" fill="white"/>
<path d="M248.912 235.28C247.358 234.738 244.887 233.74 243.66 233.255C242.729 232.886 243.191 231.474 244.086 231.83C245.274 232.303 247.836 233.307 249.42 233.89C250.326 234.224 249.868 235.614 248.912 235.28Z" fill="white"/>
<path d="M155.331 528.203H111.066L105.346 462.987H161.05L155.331 528.203Z" fill="white"/>
<path d="M164.21 456.188H161.857V447.613C161.857 445.558 160.177 443.884 158.115 443.884H108.295C106.233 443.884 104.553 445.558 104.553 447.613V456.188H102.189C101.75 456.188 101.39 456.546 101.39 456.984V462.984C101.39 463.422 101.75 463.78 102.189 463.78H104.619L110.275 528.269C110.311 528.679 110.651 528.997 111.071 528.997H155.331C155.742 528.997 156.091 528.679 156.124 528.269L161.78 463.78H164.215C164.655 463.78 165.014 463.422 165.014 462.984V456.984C165.014 456.546 164.649 456.188 164.21 456.188ZM154.595 527.404H111.79L110.382 511.316H156.006L154.595 527.404ZM156.143 509.721H110.239L107.699 480.744H158.68L156.143 509.721ZM158.823 479.149H107.562L106.214 463.783H160.168L158.823 479.149Z" fill="black"/>
<path d="M158.543 457.556H109.838C109.083 457.556 109.083 456.418 109.838 456.418H158.543C159.298 456.418 159.298 457.556 158.543 457.556Z" fill="white"/>
<path d="M190.958 383.639H389.873C396.237 383.639 401.402 388.786 401.402 395.128V528.201H179.429V395.128C179.429 388.786 184.593 383.639 190.958 383.639Z" fill="white"/>
<path d="M401.404 529H179.429C178.99 529 178.63 528.641 178.63 528.203V395.13C178.63 388.356 184.16 382.846 190.958 382.846H389.873C396.671 382.846 402.201 388.356 402.201 395.13V528.203C402.201 528.641 401.844 529 401.404 529ZM180.231 527.404H400.611V395.128C400.611 389.229 395.795 384.435 389.881 384.435H190.958C185.038 384.435 180.228 389.229 180.228 395.128L180.231 527.404Z" fill="black"/>
<path d="M290.418 481.37C281.294 481.37 273.873 473.975 273.873 464.883C273.873 455.791 281.294 448.396 290.418 448.396C299.542 448.396 306.963 455.791 306.963 464.883C306.963 473.975 299.542 481.37 290.418 481.37ZM290.418 449.996C282.178 449.996 275.474 456.675 275.474 464.889C275.474 473.102 282.176 479.781 290.418 479.781C298.66 479.781 305.362 473.102 305.362 464.889C305.362 456.675 298.66 449.996 290.418 449.996Z" fill="black"/>
<path d="M392.377 517.333H188.462C187.405 517.333 187.405 515.738 188.462 515.738H392.377C393.434 515.738 393.434 517.333 392.377 517.333Z" fill="black"/>
<path d="M546.535 528.999H34.3034C33.2463 528.999 33.2463 527.404 34.3034 527.404H546.535C547.593 527.404 547.593 528.999 546.535 528.999Z" fill="black"/>
</svg>
