<svg width="457" height="91" viewBox="0 0 457 91" fill="none" xmlns="http://www.w3.org/2000/svg">
<path d="M218.464 43.9706C214.809 43.9706 211.154 43.9706 207.143 43.9706C207.143 29.7261 207.143 15.5249 207.143 1.05346C217.136 1.05346 227.24 0.641123 237.286 1.22511C242.412 1.52305 245.809 5.32243 247.369 10.4123C249.2 16.3819 246.638 20.7247 242.056 24.4438C248.116 27.7355 251.049 32.6835 249.955 39.2711C248.746 46.5528 243.894 51.337 236.986 52.9076C231.266 54.2084 225.179 53.8988 218.565 54.3496C218.565 50.6597 218.565 47.7204 218.957 44.4405C223.006 44.0982 226.669 44.2262 230.318 44.0622C234.96 43.8536 237.893 40.9816 237.777 37.0634C237.662 33.1575 234.596 30.2757 230.146 30.0863C227.226 29.962 224.296 30.0628 221.467 30.0628C221.467 26.474 221.467 23.5541 221.467 20.2291C224.517 20.2291 227.306 20.236 230.095 20.2273C233.237 20.2175 235.122 18.8271 235.283 15.5136C235.446 12.1487 233.589 10.5581 230.497 10.4282C226.713 10.2692 222.917 10.3903 218.464 10.3903C218.464 21.795 218.464 32.8828 218.464 43.9706Z" fill="#030303"/>
<path d="M23.4461 42.7357C23.4076 39.8095 23.4076 37.3378 23.4076 34.5757C29.029 33.7213 35.5952 35.6136 38.863 29.6409C40.3519 26.9195 41.1219 23.2443 40.7544 20.177C39.8134 12.3217 33.3434 9.40081 20.9137 10.7913C20.9137 24.9777 20.9137 39.2249 20.9137 53.7168C16.8681 53.7168 13.2773 53.7168 9 53.7168C9 45.0033 9 36.2537 9 27.504C9 18.7044 9 9.90473 9 1.0622C18.1358 1.0622 26.9754 0.467047 35.6995 1.21667C46.0154 2.10306 53.6872 11.8229 53.655 22.4964C53.6231 33.0969 45.7969 42.6181 35.5904 43.7712C31.6276 44.2189 27.5241 43.4209 23.4461 42.7357Z" fill="#060505"/>
<path d="M147.083 39.9532C147.463 43.0297 146.819 44.4964 143.724 44.1574C141.263 43.8879 138.75 44.1031 135.651 44.1031C135.651 38.7979 135.654 33.6969 135.65 28.5958C135.644 20.1159 135.227 19.753 125.847 20.5513C125.847 28.2204 125.847 35.9524 125.847 43.8874C121.724 43.8874 118.148 43.8874 114.144 43.8874C114.144 38.7293 114.145 33.774 114.144 28.8187C114.143 20.2174 113.242 19.4442 104.335 20.6866C104.335 28.2585 104.335 35.8773 104.335 43.7981C100.511 43.7981 96.972 43.7981 93.1841 43.7981C93.1841 32.8406 93.1841 21.9162 93.1841 10.1346C103.899 12.2554 115.813 5.88162 125.328 16.4346C125.621 14.3403 125.881 12.4862 126.175 10.3846C129.156 10.3846 131.972 10.2578 134.774 10.4095C141.854 10.7929 146.851 15.8615 147.049 22.9765C147.202 28.47 147.082 33.971 147.083 39.9532Z" fill="#060606"/>
<path d="M352.038 20.2203C349.585 20.2398 347.569 20.0893 345.599 20.3245C342.322 20.7159 340.412 22.7892 340.527 26.034C340.643 29.2765 342.59 31.1921 346.001 31.2597C347.654 31.2925 349.309 31.2653 351.35 31.2653C351.35 34.5602 351.35 37.5974 351.35 40.8764C347.562 40.8764 343.714 41.3715 340.045 40.7711C332.885 39.5995 327.999 33.4411 327.937 26.3865C327.87 18.8991 332.857 11.8702 340.278 11.1342C348.483 10.3203 356.831 10.9482 365.923 10.9482C365.923 14.5011 365.924 18.4038 365.922 22.3065C365.919 28.6268 366.076 34.9524 365.871 41.2662C365.583 50.1415 361.588 53.9164 352.823 53.9767C348.855 54.004 344.886 53.9813 340.602 53.9813C340.602 50.7416 340.602 47.8184 340.602 44.0714C343.613 44.0714 346.893 44.3878 350.062 43.933C351.565 43.7174 353.993 42.0939 354.056 40.9964C354.427 34.5337 354.259 28.0375 354.142 21.5549C354.134 21.1014 353.069 20.667 352.038 20.2203Z" fill="#0A0A09"/>
<path d="M314.145 2.58272C317.782 1.4449 321.41 0.760742 325.444 0C325.444 15.3337 325.444 29.534 325.444 43.989C317.757 43.989 310.278 44.3896 302.862 43.8802C294.899 43.3333 288.089 35.0802 288.101 26.9815C288.112 18.5096 293.999 11.7254 302.543 10.6611C305.301 10.3176 308.138 10.6072 311.275 10.6072C311.275 13.7252 311.275 16.7789 311.275 19.829C303.339 20.8168 300.114 23.4672 300.837 28.3244C301.546 33.0951 305.308 34.7109 314.137 33.805C314.137 23.5822 314.137 13.3093 314.145 2.58272Z" fill="#0A0A09"/>
<path d="M170.958 20.2088C164.423 20.6154 161.583 22.9164 161.745 27.3456C161.909 31.8033 165.022 34.166 170.88 34.2025C176.192 34.2355 181.504 34.2095 187.047 34.2095C187.047 37.5604 187.047 40.6725 187.047 43.9625C179.803 43.9625 172.649 44.3813 165.563 43.8598C156.053 43.1598 149.256 36.0465 149.111 27.564C148.976 19.6462 155.785 11.8862 164.81 10.9948C172.038 10.2809 179.393 10.8506 186.748 10.8506C189.542 25.2156 181.867 33.3362 167.304 30.8042C169.614 27.5098 171.867 24.2952 174.503 20.5359C173.103 20.3901 172.233 20.2994 170.958 20.2088Z" fill="#070706"/>
<path d="M369.852 20.1271C373.586 14.187 378.73 10.9977 385.278 10.6832C392.051 10.3578 398.853 10.6108 405.607 10.6108C407.764 25.606 400.993 32.7246 386.05 30.915C388.431 27.4484 390.713 24.1264 393.398 20.2184C391.095 20.2184 389.5 20.1339 387.915 20.2343C383.296 20.5271 380.254 23.3851 380.363 27.2369C380.471 31.1024 383.597 34.0732 388.026 34.171C393.833 34.2993 399.645 34.2025 405.774 34.2025C405.774 37.5147 405.774 40.5689 405.774 43.9314C398.502 43.9314 391.163 44.522 383.955 43.8008C371.352 42.5398 365.067 31.8183 369.852 20.1271Z" fill="#060606"/>
<path d="M274.199 33.8713C274.634 26.0008 274.634 18.369 274.634 10.5615C278.712 10.5615 282.143 10.5615 285.86 10.5615C285.86 21.6649 285.86 32.5833 285.86 43.8682C278.361 43.8682 270.731 44.3268 263.186 43.7215C257.262 43.2463 252.753 38.2194 252.411 32.275C252.003 25.1754 252.315 18.0344 252.315 10.644C256.079 10.644 259.521 10.644 263.793 10.644C263.793 15.14 263.792 19.7267 263.793 24.3135C263.796 34.4163 263.796 34.4163 274.199 33.8713Z" fill="#070707"/>
<path d="M431.655 37.363C431.656 39.7635 431.656 41.7183 431.656 43.9859C427.098 43.9859 422.955 44.3134 418.885 43.9061C413.344 43.3514 409.11 38.9671 409.028 33.7472C408.857 22.9592 408.976 12.1666 408.976 1.02414C412.697 1.02414 416.233 1.02414 420.146 1.02414C420.146 3.93547 420.146 6.87579 420.146 10.1942C423.946 10.1942 427.385 10.1942 431.24 10.1942C431.24 13.5975 431.24 16.6313 431.24 20.1549C427.686 20.1549 424.112 20.1549 420.251 20.1549C420.251 22.1128 420.255 23.5955 420.25 25.0782C420.221 33.6175 420.229 33.5299 428.664 34.3219C429.732 34.4222 430.661 36.0156 431.655 37.363Z" fill="#060606"/>
<path d="M67.0796 37.0401C67.0796 39.5098 67.0796 41.4911 67.0796 43.7857C63.3349 43.7857 59.7614 43.7857 55.8977 43.7857C55.8977 36.2472 55.5824 28.6186 55.9983 21.0301C56.3257 15.058 60.7681 11.0291 66.7737 10.5113C69.894 10.2423 73.0566 10.464 76.5726 10.464C76.5726 13.6931 76.5726 16.7395 76.5747 19.7904C67.2662 21.0196 67.08 21.2404 67.0796 31.0588C67.0795 32.8897 67.0796 34.7207 67.0796 37.0401Z" fill="#050504"/>
<path d="M218.433 43.9318C218.465 32.8828 218.465 21.795 218.465 10.3903C222.917 10.3903 226.713 10.2692 230.497 10.4282C233.59 10.5582 235.447 12.1487 235.283 15.5136C235.122 18.8271 233.237 20.2175 230.095 20.2273C227.306 20.2361 224.517 20.2292 221.468 20.2292C221.468 23.5541 221.468 26.4741 221.468 30.0628C224.297 30.0628 227.226 29.962 230.147 30.0863C234.596 30.2758 237.662 33.1576 237.778 37.0634C237.893 40.9817 234.96 43.8536 230.318 44.0622C226.669 44.2262 223.006 44.0982 218.828 43.9801C218.307 43.8602 218.402 43.893 218.433 43.9318Z" fill="#E8E4DE"/>
<path d="M80.234 44.0626C79.4861 39.4774 79.0968 34.9227 78.9853 30.3611C78.8513 24.8755 78.9536 19.3841 78.9536 13.5651C82.711 13.5651 86.2515 13.5651 90.0186 13.5651C90.0186 23.647 90.0186 33.5821 90.0186 44.0899C86.9315 44.0899 83.8236 44.0899 80.234 44.0626Z" fill="#020202"/>
<path d="M81.1359 10.3574C79.8497 7.37973 79.0566 4.4073 78.1333 0.947083C82.7204 0.947083 86.1194 0.947083 89.8784 0.947083C89.8784 3.82729 89.8784 6.83859 89.8784 10.3626C87.1275 10.3626 84.3783 10.3626 81.1359 10.3574Z" fill="black"/>
<path d="M2.92 86C2.36 86 2.08 85.72 2.08 85.16V73.28C2.08 72.72 2.36 72.44 2.92 72.44C3.28667 72.44 3.59333 72.62 3.84 72.98L8.56 80.08L8.2 80.14L12.96 72.98C13.1867 72.62 13.5267 72.44 13.98 72.44C14.4333 72.44 14.66 72.72 14.66 73.28V85.16C14.66 85.72 14.38 86 13.82 86C13.26 86 12.98 85.72 12.98 85.16V74.96L13.5 75.14L9.3 81.32C9.05333 81.68 8.71333 81.86 8.28 81.86C7.98 81.86 7.70667 81.68 7.46 81.32L3.26 75.14L3.76 75.28V85.16C3.76 85.72 3.48 86 2.92 86ZM18.1783 85.92C17.6449 85.7133 17.4849 85.3467 17.6983 84.82L22.4583 73.1C22.6583 72.66 22.9716 72.44 23.3983 72.44H23.4383C23.8716 72.46 24.1649 72.68 24.3183 73.1L29.1583 84.82C29.3716 85.3467 29.2183 85.7133 28.6983 85.92C28.1716 86.1267 27.8049 85.9733 27.5983 85.46L26.5183 82.84H20.2883L19.2583 85.46C19.0516 85.98 18.6916 86.1333 18.1783 85.92ZM20.9483 81.16H25.8283L23.3383 75.1L20.9483 81.16ZM34.9231 86C33.7831 86 32.8931 85.77 32.2531 85.31C31.6198 84.85 31.2231 84.14 31.0631 83.18C31.0365 82.8867 31.0965 82.6667 31.2431 82.52C31.3898 82.3733 31.6031 82.3 31.8831 82.3C32.1631 82.3 32.3665 82.3667 32.4931 82.5C32.6265 82.6333 32.7165 82.84 32.7631 83.12C32.8631 83.58 33.0765 83.8967 33.4031 84.07C33.7365 84.2367 34.2431 84.32 34.9231 84.32H37.8031C38.6631 84.32 39.2465 84.1667 39.5531 83.86C39.8665 83.5467 40.0231 82.9667 40.0231 82.12C40.0231 81.26 39.8631 80.6733 39.5431 80.36C39.2231 80.04 38.6431 79.88 37.8031 79.88H35.3231C34.0631 79.88 33.1265 79.5733 32.5131 78.96C31.9065 78.34 31.6031 77.4 31.6031 76.14C31.6031 74.8867 31.9031 73.9567 32.5031 73.35C33.1098 72.7433 34.0431 72.44 35.3031 72.44H37.6831C38.7431 72.44 39.5731 72.6567 40.1731 73.09C40.7798 73.5233 41.1631 74.1867 41.3231 75.08C41.3631 75.3667 41.3098 75.5867 41.1631 75.74C41.0165 75.8867 40.7965 75.96 40.5031 75.96C40.2365 75.96 40.0365 75.89 39.9031 75.75C39.7698 75.61 39.6831 75.4067 39.6431 75.14C39.5365 74.7467 39.3331 74.48 39.0331 74.34C38.7331 74.1933 38.2831 74.12 37.6831 74.12H35.3031C34.5031 74.12 33.9665 74.2633 33.6931 74.55C33.4198 74.83 33.2831 75.36 33.2831 76.14C33.2831 76.9267 33.4231 77.4667 33.7031 77.76C33.9831 78.0533 34.5231 78.2 35.3231 78.2H37.8031C39.1165 78.2 40.0931 78.52 40.7331 79.16C41.3798 79.8 41.7031 80.7867 41.7031 82.12C41.7031 83.4467 41.3831 84.4267 40.7431 85.06C40.1031 85.6867 39.1231 86 37.8031 86H34.9231ZM48.4447 86C48.1647 86 47.9547 85.93 47.8147 85.79C47.6747 85.65 47.6047 85.44 47.6047 85.16V74.14H43.7247C43.4447 74.14 43.2347 74.07 43.0947 73.93C42.9547 73.79 42.8847 73.58 42.8847 73.3C42.8847 73.02 42.9547 72.81 43.0947 72.67C43.2347 72.53 43.4447 72.46 43.7247 72.46H53.1647C53.4447 72.46 53.6547 72.53 53.7947 72.67C53.9347 72.81 54.0047 73.02 54.0047 73.3C54.0047 73.58 53.9347 73.79 53.7947 73.93C53.6547 74.07 53.4447 74.14 53.1647 74.14H49.2847V85.16C49.2847 85.4267 49.2114 85.6333 49.0647 85.78C48.9247 85.9267 48.718 86 48.4447 86ZM57.5098 86C56.9498 86 56.6698 85.72 56.6698 85.16V73.28C56.6698 72.72 56.9498 72.44 57.5098 72.44H64.6898C65.2498 72.44 65.5298 72.72 65.5298 73.28C65.5298 73.84 65.2498 74.12 64.6898 74.12H58.3498V78.32H62.3298C62.8898 78.32 63.1698 78.6 63.1698 79.16C63.1698 79.72 62.8898 80 62.3298 80H58.3498V84.32H64.6898C65.2498 84.32 65.5298 84.6 65.5298 85.16C65.5298 85.72 65.2498 86 64.6898 86H57.5098ZM77.4406 86.04C77.2206 86.18 77.0106 86.2233 76.8106 86.17C76.6106 86.1167 76.4406 85.98 76.3006 85.76L73.2006 80.6H70.4006V85.16C70.4006 85.72 70.1206 86 69.5606 86C69.0006 86 68.7206 85.72 68.7206 85.16V73.28C68.7206 72.72 69.0006 72.44 69.5606 72.44H74.2406C75.4606 72.44 76.394 72.7667 77.0406 73.42C77.694 74.0667 78.0206 75 78.0206 76.22V76.82C78.0206 77.88 77.774 78.7267 77.2806 79.36C76.7873 79.9867 76.074 80.3767 75.1406 80.53L77.7606 84.9C78.014 85.3667 77.9073 85.7467 77.4406 86.04ZM70.4006 78.92H74.2406C75.0006 78.92 75.5406 78.76 75.8606 78.44C76.1806 78.12 76.3406 77.58 76.3406 76.82V76.22C76.3406 75.4667 76.1806 74.93 75.8606 74.61C75.5406 74.2833 75.0006 74.12 74.2406 74.12H70.4006V78.92ZM91.4797 86C90.9197 86 90.6397 85.72 90.6397 85.16V81.08L86.0597 73.78C85.7797 73.3 85.8664 72.9067 86.3197 72.6C86.7997 72.3067 87.1864 72.3933 87.4797 72.86L91.4797 79.28L95.6797 72.86C95.8197 72.64 95.9897 72.51 96.1897 72.47C96.3897 72.4233 96.5997 72.48 96.8197 72.64C97.3064 72.94 97.393 73.32 97.0797 73.78L92.3197 81.08V85.16C92.3197 85.72 92.0397 86 91.4797 86ZM103.307 86C101.78 86 100.65 85.6367 99.9166 84.91C99.1899 84.1767 98.8266 83.0467 98.8266 81.52V76.9C98.8266 75.36 99.1932 74.23 99.9266 73.51C100.66 72.7833 101.787 72.4267 103.307 72.44H105.707C107.24 72.44 108.37 72.8033 109.097 73.53C109.823 74.2567 110.187 75.3867 110.187 76.92V81.52C110.187 83.0467 109.823 84.1767 109.097 84.91C108.37 85.6367 107.24 86 105.707 86H103.307ZM103.307 84.32H105.707C106.42 84.32 106.98 84.2367 107.387 84.07C107.793 83.8967 108.08 83.6067 108.247 83.2C108.42 82.7933 108.507 82.2333 108.507 81.52V76.92C108.507 76.2133 108.42 75.6567 108.247 75.25C108.08 74.8433 107.793 74.5533 107.387 74.38C106.98 74.2067 106.42 74.12 105.707 74.12H103.307C102.6 74.1133 102.043 74.1933 101.637 74.36C101.23 74.5267 100.94 74.8133 100.767 75.22C100.593 75.6267 100.507 76.1867 100.507 76.9V81.52C100.507 82.2333 100.59 82.7933 100.757 83.2C100.93 83.6067 101.22 83.8967 101.627 84.07C102.033 84.2367 102.593 84.32 103.307 84.32ZM118.237 86C116.711 86 115.581 85.6367 114.847 84.91C114.121 84.1767 113.757 83.0467 113.757 81.52V73.28C113.757 73 113.827 72.79 113.967 72.65C114.107 72.51 114.317 72.44 114.597 72.44C114.877 72.44 115.087 72.51 115.227 72.65C115.367 72.79 115.437 73 115.437 73.28V81.52C115.437 82.2333 115.521 82.7933 115.687 83.2C115.861 83.6067 116.151 83.8967 116.557 84.07C116.964 84.2367 117.524 84.32 118.237 84.32H120.637C121.351 84.32 121.911 84.2367 122.317 84.07C122.724 83.8967 123.011 83.6067 123.177 83.2C123.351 82.7933 123.437 82.2333 123.437 81.52V73.28C123.437 73 123.507 72.79 123.647 72.65C123.787 72.51 123.997 72.44 124.277 72.44C124.557 72.44 124.767 72.51 124.907 72.65C125.047 72.79 125.117 73 125.117 73.28V81.52C125.117 83.0467 124.754 84.1767 124.027 84.91C123.301 85.6367 122.171 86 120.637 86H118.237ZM137.89 86.04C137.67 86.18 137.46 86.2233 137.26 86.17C137.06 86.1167 136.89 85.98 136.75 85.76L133.65 80.6H130.85V85.16C130.85 85.72 130.57 86 130.01 86C129.45 86 129.17 85.72 129.17 85.16V73.28C129.17 72.72 129.45 72.44 130.01 72.44H134.69C135.91 72.44 136.843 72.7667 137.49 73.42C138.143 74.0667 138.47 75 138.47 76.22V76.82C138.47 77.88 138.223 78.7267 137.73 79.36C137.237 79.9867 136.523 80.3767 135.59 80.53L138.21 84.9C138.463 85.3667 138.357 85.7467 137.89 86.04ZM130.85 78.92H134.69C135.45 78.92 135.99 78.76 136.31 78.44C136.63 78.12 136.79 77.58 136.79 76.82V76.22C136.79 75.4667 136.63 74.93 136.31 74.61C135.99 74.2833 135.45 74.12 134.69 74.12H130.85V78.92ZM148.799 86C148.239 86 147.959 85.72 147.959 85.16V73.28C147.959 72.72 148.239 72.44 148.799 72.44C149.166 72.44 149.472 72.62 149.719 72.98L154.439 80.08L154.079 80.14L158.839 72.98C159.066 72.62 159.406 72.44 159.859 72.44C160.312 72.44 160.539 72.72 160.539 73.28V85.16C160.539 85.72 160.259 86 159.699 86C159.139 86 158.859 85.72 158.859 85.16V74.96L159.379 75.14L155.179 81.32C154.932 81.68 154.592 81.86 154.159 81.86C153.859 81.86 153.586 81.68 153.339 81.32L149.139 75.14L149.639 75.28V85.16C149.639 85.72 149.359 86 148.799 86ZM168.697 86C167.171 86 166.041 85.6367 165.307 84.91C164.581 84.1767 164.217 83.0467 164.217 81.52V76.9C164.217 75.36 164.584 74.23 165.317 73.51C166.051 72.7833 167.177 72.4267 168.697 72.44H171.097C172.631 72.44 173.761 72.8033 174.487 73.53C175.214 74.2567 175.577 75.3867 175.577 76.92V81.52C175.577 83.0467 175.214 84.1767 174.487 84.91C173.761 85.6367 172.631 86 171.097 86H168.697ZM168.697 84.32H171.097C171.811 84.32 172.371 84.2367 172.777 84.07C173.184 83.8967 173.471 83.6067 173.637 83.2C173.811 82.7933 173.897 82.2333 173.897 81.52V76.92C173.897 76.2133 173.811 75.6567 173.637 75.25C173.471 74.8433 173.184 74.5533 172.777 74.38C172.371 74.2067 171.811 74.12 171.097 74.12H168.697C167.991 74.1133 167.434 74.1933 167.027 74.36C166.621 74.5267 166.331 74.8133 166.157 75.22C165.984 75.6267 165.897 76.1867 165.897 76.9V81.52C165.897 82.2333 165.981 82.7933 166.147 83.2C166.321 83.6067 166.611 83.8967 167.017 84.07C167.424 84.2367 167.984 84.32 168.697 84.32ZM180.088 86C179.528 86 179.248 85.72 179.248 85.16V73.28C179.248 72.72 179.528 72.44 180.088 72.44C180.375 72.44 180.655 72.6067 180.928 72.94L188.968 83.3H188.548V73.28C188.548 72.72 188.828 72.44 189.388 72.44C189.948 72.44 190.228 72.72 190.228 73.28V85.16C190.228 85.72 189.948 86 189.388 86C189.088 86 188.808 85.8333 188.548 85.5L180.508 75.14H180.928V85.16C180.928 85.72 180.648 86 180.088 86ZM195.225 86C194.665 86 194.385 85.72 194.385 85.16V73.28C194.385 72.72 194.665 72.44 195.225 72.44H202.405C202.965 72.44 203.245 72.72 203.245 73.28C203.245 73.84 202.965 74.12 202.405 74.12H196.065V78.32H200.045C200.605 78.32 200.885 78.6 200.885 79.16C200.885 79.72 200.605 80 200.045 80H196.065V84.32H202.405C202.965 84.32 203.245 84.6 203.245 85.16C203.245 85.72 202.965 86 202.405 86H195.225ZM210.405 86C209.845 86 209.565 85.72 209.565 85.16V81.08L204.985 73.78C204.705 73.3 204.792 72.9067 205.245 72.6C205.725 72.3067 206.112 72.3933 206.405 72.86L210.405 79.28L214.605 72.86C214.745 72.64 214.915 72.51 215.115 72.47C215.315 72.4233 215.525 72.48 215.745 72.64C216.232 72.94 216.319 73.32 216.005 73.78L211.245 81.08V85.16C211.245 85.72 210.965 86 210.405 86ZM225.869 86C225.309 86 225.029 85.72 225.029 85.16V73.28C225.029 72.72 225.309 72.44 225.869 72.44H230.549C231.769 72.44 232.703 72.7667 233.349 73.42C234.003 74.0667 234.329 75 234.329 76.22V76.82C234.329 78.04 234.003 78.9767 233.349 79.63C232.703 80.2767 231.769 80.6 230.549 80.6H226.709V85.16C226.709 85.72 226.429 86 225.869 86ZM226.709 78.92H230.549C231.309 78.92 231.849 78.76 232.169 78.44C232.489 78.12 232.649 77.58 232.649 76.82V76.22C232.649 75.4667 232.489 74.93 232.169 74.61C231.849 74.2833 231.309 74.12 230.549 74.12H226.709V78.92ZM238.135 86C237.575 86 237.295 85.72 237.295 85.16V73.28C237.295 72.72 237.575 72.44 238.135 72.44C238.695 72.44 238.975 72.72 238.975 73.28V84.32H244.515C245.075 84.32 245.355 84.6 245.355 85.16C245.355 85.72 245.075 86 244.515 86H238.135ZM247.475 85.92C246.942 85.7133 246.782 85.3467 246.995 84.82L251.755 73.1C251.955 72.66 252.268 72.44 252.695 72.44H252.735C253.168 72.46 253.462 72.68 253.615 73.1L258.455 84.82C258.668 85.3467 258.515 85.7133 257.995 85.92C257.468 86.1267 257.102 85.9733 256.895 85.46L255.815 82.84H249.585L248.555 85.46C248.348 85.98 247.988 86.1333 247.475 85.92ZM250.245 81.16H255.125L252.635 75.1L250.245 81.16ZM262.275 86C261.715 86 261.435 85.72 261.435 85.16V73.28C261.435 72.72 261.715 72.44 262.275 72.44C262.562 72.44 262.842 72.6067 263.115 72.94L271.155 83.3H270.735V73.28C270.735 72.72 271.015 72.44 271.575 72.44C272.135 72.44 272.415 72.72 272.415 73.28V85.16C272.415 85.72 272.135 86 271.575 86C271.275 86 270.995 85.8333 270.735 85.5L262.695 75.14H263.115V85.16C263.115 85.72 262.835 86 262.275 86ZM283.701 86C283.141 86 282.861 85.72 282.861 85.16V73.28C282.861 72.72 283.141 72.44 283.701 72.44H291.061C291.321 72.44 291.525 72.5167 291.671 72.67C291.825 72.8167 291.901 73.02 291.901 73.28C291.901 73.84 291.621 74.12 291.061 74.12H284.541V78.32H288.561C289.121 78.32 289.401 78.6 289.401 79.16C289.401 79.72 289.121 80 288.561 80H284.541V85.16C284.541 85.72 284.261 86 283.701 86ZM297.779 86C296.253 86 295.123 85.6367 294.389 84.91C293.663 84.1767 293.299 83.0467 293.299 81.52V76.9C293.299 75.36 293.666 74.23 294.399 73.51C295.133 72.7833 296.259 72.4267 297.779 72.44H300.179C301.713 72.44 302.843 72.8033 303.569 73.53C304.296 74.2567 304.659 75.3867 304.659 76.92V81.52C304.659 83.0467 304.296 84.1767 303.569 84.91C302.843 85.6367 301.713 86 300.179 86H297.779ZM297.779 84.32H300.179C300.893 84.32 301.453 84.2367 301.859 84.07C302.266 83.8967 302.553 83.6067 302.719 83.2C302.893 82.7933 302.979 82.2333 302.979 81.52V76.92C302.979 76.2133 302.893 75.6567 302.719 75.25C302.553 74.8433 302.266 74.5533 301.859 74.38C301.453 74.2067 300.893 74.12 300.179 74.12H297.779C297.073 74.1133 296.516 74.1933 296.109 74.36C295.703 74.5267 295.413 74.8133 295.239 75.22C295.066 75.6267 294.979 76.1867 294.979 76.9V81.52C294.979 82.2333 295.063 82.7933 295.229 83.2C295.403 83.6067 295.693 83.8967 296.099 84.07C296.506 84.2367 297.066 84.32 297.779 84.32ZM317.05 86.04C316.83 86.18 316.62 86.2233 316.42 86.17C316.22 86.1167 316.05 85.98 315.91 85.76L312.81 80.6H310.01V85.16C310.01 85.72 309.73 86 309.17 86C308.61 86 308.33 85.72 308.33 85.16V73.28C308.33 72.72 308.61 72.44 309.17 72.44H313.85C315.07 72.44 316.003 72.7667 316.65 73.42C317.303 74.0667 317.63 75 317.63 76.22V76.82C317.63 77.88 317.383 78.7267 316.89 79.36C316.397 79.9867 315.683 80.3767 314.75 80.53L317.37 84.9C317.623 85.3667 317.517 85.7467 317.05 86.04ZM310.01 78.92H313.85C314.61 78.92 315.15 78.76 315.47 78.44C315.79 78.12 315.95 77.58 315.95 76.82V76.22C315.95 75.4667 315.79 74.93 315.47 74.61C315.15 74.2833 314.61 74.12 313.85 74.12H310.01V78.92ZM331.179 86C330.899 86 330.689 85.93 330.549 85.79C330.409 85.65 330.339 85.44 330.339 85.16V74.14H326.459C326.179 74.14 325.969 74.07 325.829 73.93C325.689 73.79 325.619 73.58 325.619 73.3C325.619 73.02 325.689 72.81 325.829 72.67C325.969 72.53 326.179 72.46 326.459 72.46H335.899C336.179 72.46 336.389 72.53 336.529 72.67C336.669 72.81 336.739 73.02 336.739 73.3C336.739 73.58 336.669 73.79 336.529 73.93C336.389 74.07 336.179 74.14 335.899 74.14H332.019V85.16C332.019 85.4267 331.946 85.6333 331.799 85.78C331.659 85.9267 331.452 86 331.179 86ZM342.603 86C341.077 86 339.947 85.6367 339.213 84.91C338.487 84.1767 338.123 83.0467 338.123 81.52V76.9C338.123 75.36 338.49 74.23 339.223 73.51C339.957 72.7833 341.083 72.4267 342.603 72.44H345.003C346.537 72.44 347.667 72.8033 348.393 73.53C349.12 74.2567 349.483 75.3867 349.483 76.92V81.52C349.483 83.0467 349.12 84.1767 348.393 84.91C347.667 85.6367 346.537 86 345.003 86H342.603ZM342.603 84.32H345.003C345.717 84.32 346.277 84.2367 346.683 84.07C347.09 83.8967 347.377 83.6067 347.543 83.2C347.717 82.7933 347.803 82.2333 347.803 81.52V76.92C347.803 76.2133 347.717 75.6567 347.543 75.25C347.377 74.8433 347.09 74.5533 346.683 74.38C346.277 74.2067 345.717 74.12 345.003 74.12H342.603C341.897 74.1133 341.34 74.1933 340.933 74.36C340.527 74.5267 340.237 74.8133 340.063 75.22C339.89 75.6267 339.803 76.1867 339.803 76.9V81.52C339.803 82.2333 339.887 82.7933 340.053 83.2C340.227 83.6067 340.517 83.8967 340.923 84.07C341.33 84.2367 341.89 84.32 342.603 84.32ZM353.994 86C353.434 86 353.154 85.72 353.154 85.16V73.28C353.154 72.72 353.434 72.44 353.994 72.44C354.361 72.44 354.668 72.62 354.914 72.98L359.634 80.08L359.274 80.14L364.034 72.98C364.261 72.62 364.601 72.44 365.054 72.44C365.508 72.44 365.734 72.72 365.734 73.28V85.16C365.734 85.72 365.454 86 364.894 86C364.334 86 364.054 85.72 364.054 85.16V74.96L364.574 75.14L360.374 81.32C360.128 81.68 359.788 81.86 359.354 81.86C359.054 81.86 358.781 81.68 358.534 81.32L354.334 75.14L354.834 75.28V85.16C354.834 85.72 354.554 86 353.994 86ZM370.733 86C370.173 86 369.893 85.72 369.893 85.16V73.28C369.893 72.72 370.173 72.44 370.733 72.44C371.099 72.44 371.406 72.62 371.653 72.98L376.373 80.08L376.013 80.14L380.773 72.98C380.999 72.62 381.339 72.44 381.793 72.44C382.246 72.44 382.473 72.72 382.473 73.28V85.16C382.473 85.72 382.193 86 381.633 86C381.073 86 380.793 85.72 380.793 85.16V74.96L381.313 75.14L377.113 81.32C376.866 81.68 376.526 81.86 376.093 81.86C375.793 81.86 375.519 81.68 375.273 81.32L371.073 75.14L371.573 75.28V85.16C371.573 85.72 371.293 86 370.733 86ZM390.631 86C389.104 86 387.974 85.6367 387.241 84.91C386.514 84.1767 386.151 83.0467 386.151 81.52V76.9C386.151 75.36 386.517 74.23 387.251 73.51C387.984 72.7833 389.111 72.4267 390.631 72.44H393.031C394.564 72.44 395.694 72.8033 396.421 73.53C397.147 74.2567 397.511 75.3867 397.511 76.92V81.52C397.511 83.0467 397.147 84.1767 396.421 84.91C395.694 85.6367 394.564 86 393.031 86H390.631ZM390.631 84.32H393.031C393.744 84.32 394.304 84.2367 394.711 84.07C395.117 83.8967 395.404 83.6067 395.571 83.2C395.744 82.7933 395.831 82.2333 395.831 81.52V76.92C395.831 76.2133 395.744 75.6567 395.571 75.25C395.404 74.8433 395.117 74.5533 394.711 74.38C394.304 74.2067 393.744 74.12 393.031 74.12H390.631C389.924 74.1133 389.367 74.1933 388.961 74.36C388.554 74.5267 388.264 74.8133 388.091 75.22C387.917 75.6267 387.831 76.1867 387.831 76.9V81.52C387.831 82.2333 387.914 82.7933 388.081 83.2C388.254 83.6067 388.544 83.8967 388.951 84.07C389.357 84.2367 389.917 84.32 390.631 84.32ZM409.902 86.04C409.682 86.18 409.472 86.2233 409.272 86.17C409.072 86.1167 408.902 85.98 408.762 85.76L405.662 80.6H402.862V85.16C402.862 85.72 402.582 86 402.022 86C401.462 86 401.182 85.72 401.182 85.16V73.28C401.182 72.72 401.462 72.44 402.022 72.44H406.702C407.922 72.44 408.855 72.7667 409.502 73.42C410.155 74.0667 410.482 75 410.482 76.22V76.82C410.482 77.88 410.235 78.7267 409.742 79.36C409.248 79.9867 408.535 80.3767 407.602 80.53L410.222 84.9C410.475 85.3667 410.368 85.7467 409.902 86.04ZM402.862 78.92H406.702C407.462 78.92 408.002 78.76 408.322 78.44C408.642 78.12 408.802 77.58 408.802 76.82V76.22C408.802 75.4667 408.642 74.93 408.322 74.61C408.002 74.2833 407.462 74.12 406.702 74.12H402.862V78.92ZM422.402 86.04C422.182 86.18 421.972 86.2233 421.772 86.17C421.572 86.1167 421.402 85.98 421.262 85.76L418.162 80.6H415.362V85.16C415.362 85.72 415.082 86 414.522 86C413.962 86 413.682 85.72 413.682 85.16V73.28C413.682 72.72 413.962 72.44 414.522 72.44H419.202C420.422 72.44 421.355 72.7667 422.002 73.42C422.655 74.0667 422.982 75 422.982 76.22V76.82C422.982 77.88 422.735 78.7267 422.242 79.36C421.748 79.9867 421.035 80.3767 420.102 80.53L422.722 84.9C422.975 85.3667 422.868 85.7467 422.402 86.04ZM415.362 78.92H419.202C419.962 78.92 420.502 78.76 420.822 78.44C421.142 78.12 421.302 77.58 421.302 76.82V76.22C421.302 75.4667 421.142 74.93 420.822 74.61C420.502 74.2833 419.962 74.12 419.202 74.12H415.362V78.92ZM430.182 86C428.655 86 427.525 85.6367 426.792 84.91C426.065 84.1767 425.702 83.0467 425.702 81.52V76.9C425.702 75.36 426.068 74.23 426.802 73.51C427.535 72.7833 428.662 72.4267 430.182 72.44H432.582C434.115 72.44 435.245 72.8033 435.972 73.53C436.698 74.2567 437.062 75.3867 437.062 76.92V81.52C437.062 83.0467 436.698 84.1767 435.972 84.91C435.245 85.6367 434.115 86 432.582 86H430.182ZM430.182 84.32H432.582C433.295 84.32 433.855 84.2367 434.262 84.07C434.668 83.8967 434.955 83.6067 435.122 83.2C435.295 82.7933 435.382 82.2333 435.382 81.52V76.92C435.382 76.2133 435.295 75.6567 435.122 75.25C434.955 74.8433 434.668 74.5533 434.262 74.38C433.855 74.2067 433.295 74.12 432.582 74.12H430.182C429.475 74.1133 428.918 74.1933 428.512 74.36C428.105 74.5267 427.815 74.8133 427.642 75.22C427.468 75.6267 427.382 76.1867 427.382 76.9V81.52C427.382 82.2333 427.465 82.7933 427.632 83.2C427.805 83.6067 428.095 83.8967 428.502 84.07C428.908 84.2367 429.468 84.32 430.182 84.32ZM443.252 86C442.885 86 442.625 85.76 442.472 85.28L438.772 73.56C438.692 73.3067 438.728 73.0533 438.882 72.8C439.042 72.5467 439.272 72.42 439.572 72.42C439.732 72.42 439.885 72.4733 440.032 72.58C440.178 72.68 440.285 72.84 440.352 73.06L443.612 83.44H443.172L446.272 73.16C446.345 72.92 446.468 72.74 446.642 72.62C446.822 72.5 447.005 72.44 447.192 72.44C447.392 72.44 447.585 72.5 447.772 72.62C447.958 72.74 448.085 72.92 448.152 73.16L451.252 83.44H450.812L454.072 73.06C454.145 72.84 454.248 72.6833 454.382 72.59C454.522 72.49 454.672 72.44 454.832 72.44C455.125 72.44 455.358 72.5533 455.532 72.78C455.705 73.0067 455.745 73.2667 455.652 73.56L451.952 85.28C451.792 85.76 451.498 86 451.072 86H451.032C450.585 86 450.292 85.76 450.152 85.28L446.932 74.86H447.372L444.132 85.28C444.065 85.52 443.965 85.7 443.832 85.82C443.705 85.94 443.512 86 443.252 86Z" fill="black"/>
</svg>
