<svg width="126" height="58" viewBox="0 0 126 58" fill="none" xmlns="http://www.w3.org/2000/svg">
<path d="M30.6096 24.1706C28.6193 24.9312 26.7634 24.5762 24.9462 24.6958C22.9611 24.8264 21.6397 24.5126 21.6415 21.9629C21.6432 19.5719 22.4214 18.724 24.8284 18.7703C28.4891 18.8406 30.2078 17.5672 31.1688 14.6938C32.0485 12.0633 31.4306 9.75634 29.4848 7.91502C27.3193 5.8659 24.5733 6.18353 21.9283 6.584C20.8934 6.7407 20.9466 7.77731 20.946 8.60246C20.9411 14.7426 20.9513 20.8827 20.9469 27.0228C20.9462 27.8773 21.1836 28.5802 21.7339 29.2827C25.1923 33.6982 25.1958 35.6823 21.7587 40.4287C23.3539 42.2921 25.2662 44.0278 25.3804 46.8374C25.5953 52.1238 21.3803 56.6826 15.7025 57.0983C14.5169 57.1851 13.3208 57.1373 12.1296 57.1369C8.13539 57.1356 8.0623 57.1441 7.48255 53.2874C7.18744 51.3242 5.81895 51.6853 4.59517 51.6501C0.993066 51.5464 0.97359 51.5598 0.961135 47.9141C0.942045 42.3238 0.937451 36.7334 0.955298 31.1432C0.967241 27.4028 1.15912 27.2184 4.78368 27.1851C6.89132 27.1657 9.00309 27.1013 11.106 27.2024C13.2295 27.3044 14.0233 26.4643 13.9946 24.3081C13.9019 17.3443 14.0436 10.377 13.9171 3.41437C13.8739 1.03774 14.6305 0.061134 17.0423 0.203816C20.6944 0.419875 24.3684 -0.079549 28.0162 0.502164C34.408 1.52146 38.1321 5.32065 38.9812 11.7139C39.63 16.5982 36.142 21.9042 30.6096 24.1706ZM8.22188 41.8314C8.22223 44.3013 8.21891 46.7713 8.22478 49.2411C8.22708 50.2084 8.34625 51.1854 9.58995 51.2151C11.4994 51.2607 13.4251 51.516 15.3128 50.9484C16.9989 50.4416 17.9636 49.4003 17.9409 47.5717C17.9182 45.7447 16.904 44.6237 15.237 44.2402C14.0111 43.9581 12.7006 43.9194 11.4347 43.9649C9.65794 44.0288 9.11071 43.2683 8.9971 41.5348C8.82752 38.9473 9.66789 37.7467 12.3732 38.0552C13.2625 38.1566 14.24 38.1206 15.0838 37.853C16.8592 37.2899 17.4173 34.8039 15.9155 33.9437C13.8368 32.7532 11.3865 32.9773 9.23983 33.5684C7.43412 34.0656 8.34862 36.0856 8.21989 37.4437C8.09968 38.7118 8.21619 40.0024 8.22188 41.8314Z" fill="white"/>
<path d="M83.4511 21.1135C83.4432 18.6515 83.4056 16.4531 83.4357 14.2556C83.4637 12.2106 82.3271 11.572 80.4822 11.526C78.4145 11.4744 78.7176 12.9022 78.7116 14.1612C78.6987 16.9088 78.6718 19.6567 78.7016 22.4039C78.7355 25.5257 76.4003 24.5302 74.7666 24.676C73.0956 24.8251 71.6427 24.7061 71.7525 22.3367C71.8753 19.6866 71.7485 17.0258 71.7774 14.3702C71.7975 12.5256 70.7875 11.7427 69.098 11.5521C67.6972 11.3941 66.8182 11.6707 66.8853 13.4117C66.9979 16.333 66.8549 19.2641 66.9668 22.1854C67.0608 24.64 65.5861 24.7867 63.7647 24.687C62.0175 24.5913 59.88 25.2515 59.9006 22.2763C59.933 17.606 59.8968 12.9352 59.9082 8.26473C59.9124 6.53442 60.5982 5.56135 62.5494 5.62312C65.6602 5.72159 68.7766 5.62902 71.8903 5.65062C73.9855 5.66516 75.7701 6.54859 77.3856 7.81706C79.0063 5.07583 84.766 4.80145 87.6974 7.30317C89.3792 8.73835 90.3342 10.5386 90.3074 12.8179C90.2739 15.6567 90.2452 18.4976 90.3189 21.3349C90.3714 23.3588 90.2873 24.867 87.4962 24.7462C83.635 24.5791 83.6104 24.7418 83.4511 21.1135Z" fill="white"/>
<path d="M80.7177 57.1443C79.63 57.1433 78.8059 57.1492 77.982 57.14C74.8741 57.1051 73.846 55.5987 74.7592 52.5734C75.2583 50.9197 76.5808 51.3157 77.6933 51.2842C82.3242 51.1531 82.3257 51.1734 82.3297 46.5147C82.3319 44.0583 82.3301 41.6018 82.3301 39.2643C81.1473 38.4179 79.9976 38.5476 78.9491 38.5737C77.2108 38.6169 75.528 39.1175 75.4809 41.2655C75.4314 43.527 76.9693 44.2457 78.9621 44.1434C80.8571 44.0461 81.4733 44.8686 81.5456 46.7397C81.6411 49.2118 80.8252 50.1107 78.2615 50.066C72.3861 49.9635 68.5023 47.3564 67.9382 42.7587C67.3234 37.7469 70.9583 33.16 76.2416 32.7312C79.8803 32.4359 83.5602 32.6589 87.2215 32.6259C88.599 32.6135 89.2073 33.2418 89.2004 34.622C89.173 40.115 89.3427 45.6146 89.1223 51.0991C88.9539 55.2918 86.2616 57.1123 80.7177 57.1443Z" fill="white"/>
<path d="M55.0754 32.6424C59.469 32.617 59.5533 32.7782 59.5086 36.3339C59.4871 38.0479 58.7331 38.3948 57.2326 38.6295C54.5221 39.0536 53.1181 40.7845 53.4754 42.7985C53.8184 44.7317 55.893 45.8942 58.3885 45.8095C60.0949 45.7516 60.2852 44.7983 60.2793 43.47C60.2594 38.986 60.3915 34.4975 60.232 30.019C60.1239 26.9832 62.0366 27.2266 64.0189 27.1739C66.0342 27.1203 67.2912 27.4711 67.2305 30.008C67.0796 36.3191 67.1339 42.6367 67.2098 48.9505C67.2336 50.9258 66.5884 51.7787 64.5221 51.6789C61.8744 51.5511 59.2156 51.6602 56.5616 51.6509C50.8271 51.6308 46.3927 47.8721 45.9514 42.6694C45.5354 37.7652 49.1355 33.7049 55.0754 32.6424Z" fill="white"/>
<path d="M112.596 20.8079C112.568 24.6735 112.567 24.7396 108.936 24.6672C105.557 24.5999 102.142 25.109 98.8027 24.3211C94.0661 23.2035 91.0393 19.621 91.029 15.2944C91.0191 11.1692 94.2863 7.28382 98.7935 6.15763C102.768 5.16446 106.822 5.78095 110.84 5.68255C111.972 5.65482 112.398 6.39804 112.591 7.41238C113.383 11.5753 110.9 14.5317 108.445 17.1337C106.643 19.0444 103.827 17.8412 101.221 17.8156C101.481 15.395 103.635 14.2871 104.028 12.1921C102.486 11.0509 101.081 11.7276 99.7843 12.5746C98.4447 13.4497 98.2754 14.8674 98.6943 16.257C99.1657 17.8209 100.449 18.6494 102.011 18.7257C104.664 18.8552 107.325 18.8089 109.983 18.8149C111.255 18.8177 112.415 18.9361 112.596 20.8079Z" fill="white"/>
<path d="M97.5022 41.2874C97.6675 44.4734 98.7887 45.6705 101.636 45.7589C104.11 45.8357 106.589 45.8704 109.062 45.7872C111.808 45.6949 111.115 47.7059 111.321 49.2167C111.568 51.025 110.773 51.7006 108.997 51.659C105.881 51.5861 102.76 51.7195 99.6457 51.6125C94.6816 51.442 90.4869 47.8397 89.95 43.4329C89.4119 39.016 92.5946 34.5791 97.4163 33.2175C101.462 32.0752 105.62 32.7432 109.73 32.6779C110.551 32.6649 111.066 33.0998 111.304 33.9278C112.542 38.2377 109.976 41.2522 107.415 43.9114C105.511 45.8877 102.721 44.9227 100.088 44.5934C100.659 42.1374 102.675 40.909 103.38 38.6987C100.875 38.386 98.7583 38.5648 97.5022 41.2874Z" fill="white"/>
<path d="M33.0205 41.4213C33.1097 42.7554 32.7789 43.9177 33.4997 44.8756C34.4299 46.1119 35.8044 45.8295 37.054 45.7107C38.4768 45.5756 38.357 44.3825 38.3687 43.3936C38.402 40.5532 38.3742 37.7121 38.4012 34.8716C38.43 31.8338 40.738 32.7606 42.405 32.6196C44.0615 32.4795 45.2376 32.7899 45.1967 34.9255C45.1054 39.6889 45.1363 44.4559 45.2032 49.2202C45.2276 50.9604 44.6032 51.713 42.8049 51.6635C39.6914 51.5777 36.5713 51.7165 33.4587 51.6157C29.3391 51.4824 26.223 48.3198 26.1222 44.2032C26.0458 41.0893 26.173 37.9705 26.0948 34.8567C26.0333 32.409 27.6841 32.5541 29.2613 32.635C30.8589 32.7169 33.0254 31.9526 33.0096 34.8424C32.9981 36.95 33.0151 39.0578 33.0205 41.4213Z" fill="white"/>
<path d="M118.982 41.9939C118.842 44.9182 120.064 46.132 122.791 45.7989C125.156 45.51 125.449 46.9678 125.467 48.8632C125.486 50.7603 124.972 51.8418 122.832 51.6694C121.376 51.5521 119.899 51.7093 118.44 51.6116C115.112 51.3887 112.553 48.8677 112.499 45.5719C112.41 40.2622 112.55 34.9486 112.453 29.6392C112.41 27.3293 113.767 27.1319 115.465 27.1824C117.147 27.2323 119.396 26.7543 119.132 29.4912C118.873 32.1837 119.969 32.9476 122.381 32.6328C124.9 32.3039 125.434 33.6525 125.487 35.892C125.543 38.2789 124.376 38.7314 122.441 38.4767C119.908 38.1433 118.55 39.0007 118.982 41.9939Z" fill="white"/>
<path d="M40.6446 9.34129C42.8516 6.09072 47.4727 4.52355 50.7013 5.7362C52.1609 6.28444 51.7606 7.52941 51.7286 8.5394C51.6947 9.61001 52.2995 11.2557 50.5141 11.4143C46.82 11.7425 46.4671 14.142 46.5786 17.0644C46.6483 18.8912 46.5553 20.7312 46.424 22.5573C46.1764 25.9994 43.4961 24.3788 41.7967 24.6501C39.7366 24.979 39.6499 23.5683 39.7791 22.042C40.1315 17.8788 38.8156 13.6137 40.6446 9.34129Z" fill="white"/>
<path d="M59.3303 21.6361C59.6381 25.4916 56.9917 24.4906 55.056 24.6937C52.6182 24.9496 52.4469 23.4983 52.4539 21.636C52.4694 17.5156 52.3903 13.3941 52.2875 9.27465C52.2528 7.88408 52.7918 7.35215 54.1872 7.23358C58.9762 6.82666 59.3234 7.11814 59.3082 12.0277C59.2986 15.1428 59.3223 18.258 59.3303 21.6361Z" fill="white"/>
<path d="M56.9438 6.40575C52.1316 6.38675 52.1739 6.32641 52.3954 2.68893C52.5131 0.756706 53.3388 0.0226702 55.1065 0.232095C56.5752 0.406094 58.7759 -0.639794 59.0715 1.86009C59.2702 3.54047 60.2316 5.90974 56.9438 6.40575Z" fill="white"/>
</svg>
