<svg width="45" height="53" viewBox="0 0 45 53" fill="none" xmlns="http://www.w3.org/2000/svg">
<path d="M14.4461 41.8976C14.4076 38.9714 14.4076 36.4997 14.4076 33.7376C20.029 32.8831 26.5952 34.7754 29.863 28.8028C31.3519 26.0813 32.1219 22.4062 31.7544 19.3389C30.8134 11.4835 24.3434 8.56267 11.9137 9.95319C11.9137 24.1396 11.9137 38.3868 11.9137 52.8787C7.86808 52.8787 4.2773 52.8787 0 52.8787C0 44.1652 3.8147e-06 35.4155 3.8147e-06 26.6659C3.8147e-06 17.8662 0 9.0666 0 0.224067C9.13579 0.224067 17.9754 -0.371087 26.6995 0.378532C37.0154 1.26493 44.6872 10.9848 44.655 21.6583C44.6231 32.2588 36.7969 41.78 26.5904 42.9331C22.6276 43.3808 18.5241 42.5828 14.4461 41.8976Z" fill="#FFAE00"/>
</svg>
